<svg width="29" height="22" viewBox="0 0 29 22" fill="none" xmlns="http://www.w3.org/2000/svg">
<path fill-rule="evenodd" clip-rule="evenodd" d="M26.6966 3.66667H22.037C19.6128 0.916667 18.85 0 17.9211 0H11.2375C10.3086 0 9.56094 0.916667 7.12161 3.66667H6.11719V2.44444H3.54948V3.66667H2.52995C1.20078 3.66667 0 4.675 0 6.01181V19.4562C0 20.7931 1.20078 22 2.52995 22H26.6966C28.0258 22 29 20.7931 29 19.4562V6.01181C29 4.675 28.0258 3.66667 26.6966 3.66667ZM27.7917 19.4562C27.7917 20.1667 27.3234 20.7778 26.6966 20.7778H2.52995C1.87292 20.7778 1.20833 20.1132 1.20833 19.4562V6.01181C1.20833 5.38542 1.82005 4.88889 2.52995 4.88889H7.11406H7.65026L8.01276 4.64444C8.31484 4.30069 8.59427 3.88056 8.85104 3.59028C9.70443 2.62014 10.3237 1.93264 10.7617 1.53542C11.1167 1.21458 11.2299 1.22222 11.2299 1.22222H17.9135C17.9135 1.22222 18.0344 1.21458 18.4195 1.56597C18.8802 1.98611 19.5297 2.82639 20.4284 3.84236C20.6474 4.09444 20.8815 4.36181 21.1307 4.64444L21.4932 4.88889H22.037H26.6966C27.3612 4.88889 27.7917 5.34722 27.7917 6.01181V19.4562Z" fill="white"/>
<path fill-rule="evenodd" clip-rule="evenodd" d="M14.5 5.92017C10.943 5.92017 8.04297 8.8535 8.04297 12.4514C8.04297 16.0493 10.943 18.9827 14.5 18.9827C18.057 18.9827 20.957 16.0493 20.957 12.4514C20.957 8.8535 18.057 5.92017 14.5 5.92017ZM14.5 17.7604C11.6 17.7604 9.2513 15.3847 9.2513 12.4514C9.2513 9.51808 11.6 7.14239 14.5 7.14239C17.4 7.14239 19.7487 9.51808 19.7487 12.4514C19.7487 15.3847 17.4 17.7604 14.5 17.7604Z" fill="white"/>
<rect x="21.75" y="6.11108" width="1.28385" height="1.29861" fill="white"/>
<ellipse cx="14.5" cy="12.4514" rx="2.41667" ry="2.44444" fill="white"/>
</svg>
