<svg width="388" height="505" viewBox="0 0 388 505" fill="none" xmlns="http://www.w3.org/2000/svg">
<path fill-rule="evenodd" clip-rule="evenodd" d="M3.651 0.00244141C1.6345 0.00244141 0 1.63694 0 3.65344C0 5.66944 1.6345 7.30444 3.651 7.30444C5.6675 7.30444 7.302 5.66944 7.302 3.65344C7.302 1.63694 5.6675 0.00244141 3.651 0.00244141Z" fill="white" fill-opacity="0.42"/>
<path fill-rule="evenodd" clip-rule="evenodd" d="M3.651 31.6855C1.6345 31.6855 0 33.32 0 35.3365C0 37.3525 1.6345 38.9875 3.651 38.9875C5.6675 38.9875 7.302 37.3525 7.302 35.3365C7.302 33.32 5.6675 31.6855 3.651 31.6855Z" fill="white" fill-opacity="0.42"/>
<path fill-rule="evenodd" clip-rule="evenodd" d="M3.651 63.3686C1.6345 63.3686 0 65.0031 0 67.0196C0 69.0361 1.6345 70.6706 3.651 70.6706C5.6675 70.6706 7.302 69.0361 7.302 67.0196C7.302 65.0031 5.6675 63.3686 3.651 63.3686Z" fill="white" fill-opacity="0.42"/>
<path fill-rule="evenodd" clip-rule="evenodd" d="M3.651 95.0517C1.6345 95.0517 0 96.6867 0 98.7027C0 100.719 1.6345 102.354 3.651 102.354C5.6675 102.354 7.302 100.719 7.302 98.7027C7.302 96.6867 5.6675 95.0517 3.651 95.0517Z" fill="white" fill-opacity="0.42"/>
<path fill-rule="evenodd" clip-rule="evenodd" d="M3.651 126.735C1.6345 126.735 0 128.37 0 130.386C0 132.402 1.6345 134.037 3.651 134.037C5.6675 134.037 7.302 132.402 7.302 130.386C7.302 128.37 5.6675 126.735 3.651 126.735Z" fill="white" fill-opacity="0.42"/>
<path fill-rule="evenodd" clip-rule="evenodd" d="M3.651 158.418C1.6345 158.418 0 160.053 0 162.069C0 164.086 1.6345 165.72 3.651 165.72C5.6675 165.72 7.302 164.086 7.302 162.069C7.302 160.053 5.6675 158.418 3.651 158.418Z" fill="white" fill-opacity="0.42"/>
<path fill-rule="evenodd" clip-rule="evenodd" d="M3.651 190.101C1.6345 190.101 0 191.736 0 193.752C0 195.769 1.6345 197.403 3.651 197.403C5.6675 197.403 7.302 195.769 7.302 193.752C7.302 191.736 5.6675 190.101 3.651 190.101Z" fill="white" fill-opacity="0.42"/>
<path fill-rule="evenodd" clip-rule="evenodd" d="M3.651 221.784C1.6345 221.784 0 223.419 0 225.435C0 227.452 1.6345 229.086 3.651 229.086C5.6675 229.086 7.302 227.452 7.302 225.435C7.302 223.419 5.6675 221.784 3.651 221.784Z" fill="white" fill-opacity="0.42"/>
<path fill-rule="evenodd" clip-rule="evenodd" d="M3.651 253.467C1.6345 253.467 0 255.102 0 257.119C0 259.135 1.6345 260.769 3.651 260.769C5.6675 260.769 7.302 259.135 7.302 257.119C7.302 255.102 5.6675 253.467 3.651 253.467Z" fill="white" fill-opacity="0.42"/>
<path fill-rule="evenodd" clip-rule="evenodd" d="M3.651 285.151C1.6345 285.151 0 286.786 0 288.802C0 290.818 1.6345 292.453 3.651 292.453C5.6675 292.453 7.302 290.818 7.302 288.802C7.302 286.786 5.6675 285.151 3.651 285.151Z" fill="white" fill-opacity="0.42"/>
<path fill-rule="evenodd" clip-rule="evenodd" d="M3.651 316.834C1.6345 316.834 0 318.469 0 320.485C0 322.501 1.6345 324.136 3.651 324.136C5.6675 324.136 7.302 322.501 7.302 320.485C7.302 318.469 5.6675 316.834 3.651 316.834Z" fill="white" fill-opacity="0.42"/>
<path fill-rule="evenodd" clip-rule="evenodd" d="M3.651 348.517C1.6345 348.517 0 350.152 0 352.168C0 354.184 1.6345 355.819 3.651 355.819C5.6675 355.819 7.302 354.184 7.302 352.168C7.302 350.152 5.6675 348.517 3.651 348.517Z" fill="white" fill-opacity="0.42"/>
<path fill-rule="evenodd" clip-rule="evenodd" d="M3.651 380.2C1.6345 380.2 0 381.835 0 383.851C0 385.868 1.6345 387.502 3.651 387.502C5.6675 387.502 7.302 385.868 7.302 383.851C7.302 381.835 5.6675 380.2 3.651 380.2Z" fill="white" fill-opacity="0.42"/>
<path fill-rule="evenodd" clip-rule="evenodd" d="M3.651 411.883C1.6345 411.883 0 413.518 0 415.534C0 417.551 1.6345 419.185 3.651 419.185C5.6675 419.185 7.302 417.551 7.302 415.534C7.302 413.518 5.6675 411.883 3.651 411.883Z" fill="white" fill-opacity="0.42"/>
<path fill-rule="evenodd" clip-rule="evenodd" d="M3.651 443.567C1.6345 443.567 0 445.202 0 447.218C0 449.234 1.6345 450.869 3.651 450.869C5.6675 450.869 7.302 449.234 7.302 447.218C7.302 445.202 5.6675 443.567 3.651 443.567Z" fill="white" fill-opacity="0.42"/>
<path fill-rule="evenodd" clip-rule="evenodd" d="M3.651 470.25C1.6345 470.25 0 471.885 0 473.901C0 475.917 1.6345 477.552 3.651 477.552C5.6675 477.552 7.302 475.917 7.302 473.901C7.302 471.885 5.6675 470.25 3.651 470.25Z" fill="white" fill-opacity="0.42"/>
<path fill-rule="evenodd" clip-rule="evenodd" d="M3.651 496.933C1.6345 496.933 0 498.568 0 500.584C0 502.6 1.6345 504.235 3.651 504.235C5.6675 504.235 7.302 502.6 7.302 500.584C7.302 498.568 5.6675 496.933 3.651 496.933Z" fill="white" fill-opacity="0.42"/>
<path fill-rule="evenodd" clip-rule="evenodd" d="M35.3343 0.00244141C33.3178 0.00244141 31.6833 1.63694 31.6833 3.65344C31.6833 5.66944 33.3178 7.30444 35.3343 7.30444C37.3508 7.30444 38.9853 5.66944 38.9853 3.65344C38.9853 1.63694 37.3508 0.00244141 35.3343 0.00244141Z" fill="white" fill-opacity="0.42"/>
<path fill-rule="evenodd" clip-rule="evenodd" d="M35.3343 31.6855C33.3178 31.6855 31.6833 33.32 31.6833 35.3365C31.6833 37.3525 33.3178 38.9875 35.3343 38.9875C37.3508 38.9875 38.9853 37.3525 38.9853 35.3365C38.9853 33.32 37.3508 31.6855 35.3343 31.6855Z" fill="white" fill-opacity="0.42"/>
<path fill-rule="evenodd" clip-rule="evenodd" d="M35.3343 63.3686C33.3178 63.3686 31.6833 65.0031 31.6833 67.0196C31.6833 69.0361 33.3178 70.6706 35.3343 70.6706C37.3508 70.6706 38.9853 69.0361 38.9853 67.0196C38.9853 65.0031 37.3508 63.3686 35.3343 63.3686Z" fill="white" fill-opacity="0.42"/>
<path fill-rule="evenodd" clip-rule="evenodd" d="M35.3343 95.0517C33.3178 95.0517 31.6833 96.6867 31.6833 98.7027C31.6833 100.719 33.3178 102.354 35.3343 102.354C37.3508 102.354 38.9853 100.719 38.9853 98.7027C38.9853 96.6867 37.3508 95.0517 35.3343 95.0517Z" fill="white" fill-opacity="0.42"/>
<path fill-rule="evenodd" clip-rule="evenodd" d="M35.3343 126.735C33.3178 126.735 31.6833 128.37 31.6833 130.386C31.6833 132.402 33.3178 134.037 35.3343 134.037C37.3508 134.037 38.9853 132.402 38.9853 130.386C38.9853 128.37 37.3508 126.735 35.3343 126.735Z" fill="white" fill-opacity="0.42"/>
<path fill-rule="evenodd" clip-rule="evenodd" d="M35.3343 158.418C33.3178 158.418 31.6833 160.053 31.6833 162.069C31.6833 164.086 33.3178 165.72 35.3343 165.72C37.3508 165.72 38.9853 164.086 38.9853 162.069C38.9853 160.053 37.3508 158.418 35.3343 158.418Z" fill="white" fill-opacity="0.42"/>
<path fill-rule="evenodd" clip-rule="evenodd" d="M35.3343 190.101C33.3178 190.101 31.6833 191.736 31.6833 193.752C31.6833 195.769 33.3178 197.403 35.3343 197.403C37.3508 197.403 38.9853 195.769 38.9853 193.752C38.9853 191.736 37.3508 190.101 35.3343 190.101Z" fill="white" fill-opacity="0.42"/>
<path fill-rule="evenodd" clip-rule="evenodd" d="M35.3343 221.784C33.3178 221.784 31.6833 223.419 31.6833 225.435C31.6833 227.452 33.3178 229.086 35.3343 229.086C37.3508 229.086 38.9853 227.452 38.9853 225.435C38.9853 223.419 37.3508 221.784 35.3343 221.784Z" fill="white" fill-opacity="0.42"/>
<path fill-rule="evenodd" clip-rule="evenodd" d="M35.3343 253.467C33.3178 253.467 31.6833 255.102 31.6833 257.119C31.6833 259.135 33.3178 260.769 35.3343 260.769C37.3508 260.769 38.9853 259.135 38.9853 257.119C38.9853 255.102 37.3508 253.467 35.3343 253.467Z" fill="white" fill-opacity="0.42"/>
<path fill-rule="evenodd" clip-rule="evenodd" d="M35.3343 285.151C33.3178 285.151 31.6833 286.786 31.6833 288.802C31.6833 290.818 33.3178 292.453 35.3343 292.453C37.3508 292.453 38.9853 290.818 38.9853 288.802C38.9853 286.786 37.3508 285.151 35.3343 285.151Z" fill="white" fill-opacity="0.42"/>
<path fill-rule="evenodd" clip-rule="evenodd" d="M35.3343 316.834C33.3178 316.834 31.6833 318.469 31.6833 320.485C31.6833 322.501 33.3178 324.136 35.3343 324.136C37.3508 324.136 38.9853 322.501 38.9853 320.485C38.9853 318.469 37.3508 316.834 35.3343 316.834Z" fill="white" fill-opacity="0.42"/>
<path fill-rule="evenodd" clip-rule="evenodd" d="M35.3343 348.517C33.3178 348.517 31.6833 350.152 31.6833 352.168C31.6833 354.184 33.3178 355.819 35.3343 355.819C37.3508 355.819 38.9853 354.184 38.9853 352.168C38.9853 350.152 37.3508 348.517 35.3343 348.517Z" fill="white" fill-opacity="0.42"/>
<path fill-rule="evenodd" clip-rule="evenodd" d="M35.3343 380.2C33.3178 380.2 31.6833 381.835 31.6833 383.851C31.6833 385.868 33.3178 387.502 35.3343 387.502C37.3508 387.502 38.9853 385.868 38.9853 383.851C38.9853 381.835 37.3508 380.2 35.3343 380.2Z" fill="white" fill-opacity="0.42"/>
<path fill-rule="evenodd" clip-rule="evenodd" d="M35.3343 411.883C33.3178 411.883 31.6833 413.518 31.6833 415.534C31.6833 417.551 33.3178 419.185 35.3343 419.185C37.3508 419.185 38.9853 417.551 38.9853 415.534C38.9853 413.518 37.3508 411.883 35.3343 411.883Z" fill="white" fill-opacity="0.42"/>
<path fill-rule="evenodd" clip-rule="evenodd" d="M35.3343 443.567C33.3178 443.567 31.6833 445.202 31.6833 447.218C31.6833 449.234 33.3178 450.869 35.3343 450.869C37.3508 450.869 38.9853 449.234 38.9853 447.218C38.9853 445.202 37.3508 443.567 35.3343 443.567Z" fill="white" fill-opacity="0.42"/>
<path fill-rule="evenodd" clip-rule="evenodd" d="M35.3343 470.25C33.3178 470.25 31.6833 471.885 31.6833 473.901C31.6833 475.917 33.3178 477.552 35.3343 477.552C37.3508 477.552 38.9853 475.917 38.9853 473.901C38.9853 471.885 37.3508 470.25 35.3343 470.25Z" fill="white" fill-opacity="0.42"/>
<path fill-rule="evenodd" clip-rule="evenodd" d="M35.3343 496.933C33.3178 496.933 31.6833 498.568 31.6833 500.584C31.6833 502.6 33.3178 504.235 35.3343 504.235C37.3508 504.235 38.9853 502.6 38.9853 500.584C38.9853 498.568 37.3508 496.933 35.3343 496.933Z" fill="white" fill-opacity="0.42"/>
<path fill-rule="evenodd" clip-rule="evenodd" d="M67.0174 0.00244141C65.0009 0.00244141 63.3664 1.63694 63.3664 3.65344C63.3664 5.66944 65.0009 7.30444 67.0174 7.30444C69.0339 7.30444 70.6684 5.66944 70.6684 3.65344C70.6684 1.63694 69.0339 0.00244141 67.0174 0.00244141Z" fill="white" fill-opacity="0.42"/>
<path fill-rule="evenodd" clip-rule="evenodd" d="M67.0174 31.6855C65.0009 31.6855 63.3664 33.32 63.3664 35.3365C63.3664 37.3525 65.0009 38.9875 67.0174 38.9875C69.0339 38.9875 70.6684 37.3525 70.6684 35.3365C70.6684 33.32 69.0339 31.6855 67.0174 31.6855Z" fill="white" fill-opacity="0.42"/>
<path fill-rule="evenodd" clip-rule="evenodd" d="M67.0174 63.3686C65.0009 63.3686 63.3664 65.0031 63.3664 67.0196C63.3664 69.0361 65.0009 70.6706 67.0174 70.6706C69.0339 70.6706 70.6684 69.0361 70.6684 67.0196C70.6684 65.0031 69.0339 63.3686 67.0174 63.3686Z" fill="white" fill-opacity="0.42"/>
<path fill-rule="evenodd" clip-rule="evenodd" d="M67.0174 95.0517C65.0009 95.0517 63.3664 96.6867 63.3664 98.7027C63.3664 100.719 65.0009 102.354 67.0174 102.354C69.0339 102.354 70.6684 100.719 70.6684 98.7027C70.6684 96.6867 69.0339 95.0517 67.0174 95.0517Z" fill="white" fill-opacity="0.42"/>
<path fill-rule="evenodd" clip-rule="evenodd" d="M67.0174 126.735C65.0009 126.735 63.3664 128.37 63.3664 130.386C63.3664 132.402 65.0009 134.037 67.0174 134.037C69.0339 134.037 70.6684 132.402 70.6684 130.386C70.6684 128.37 69.0339 126.735 67.0174 126.735Z" fill="white" fill-opacity="0.42"/>
<path fill-rule="evenodd" clip-rule="evenodd" d="M67.0174 158.418C65.0009 158.418 63.3664 160.053 63.3664 162.069C63.3664 164.086 65.0009 165.72 67.0174 165.72C69.0339 165.72 70.6684 164.086 70.6684 162.069C70.6684 160.053 69.0339 158.418 67.0174 158.418Z" fill="white" fill-opacity="0.42"/>
<path fill-rule="evenodd" clip-rule="evenodd" d="M67.0174 190.101C65.0009 190.101 63.3664 191.736 63.3664 193.752C63.3664 195.769 65.0009 197.403 67.0174 197.403C69.0339 197.403 70.6684 195.769 70.6684 193.752C70.6684 191.736 69.0339 190.101 67.0174 190.101Z" fill="white" fill-opacity="0.42"/>
<path fill-rule="evenodd" clip-rule="evenodd" d="M67.0174 221.784C65.0009 221.784 63.3664 223.419 63.3664 225.435C63.3664 227.452 65.0009 229.086 67.0174 229.086C69.0339 229.086 70.6684 227.452 70.6684 225.435C70.6684 223.419 69.0339 221.784 67.0174 221.784Z" fill="white" fill-opacity="0.42"/>
<path fill-rule="evenodd" clip-rule="evenodd" d="M67.0174 253.467C65.0009 253.467 63.3664 255.102 63.3664 257.119C63.3664 259.135 65.0009 260.769 67.0174 260.769C69.0339 260.769 70.6684 259.135 70.6684 257.119C70.6684 255.102 69.0339 253.467 67.0174 253.467Z" fill="white" fill-opacity="0.42"/>
<path fill-rule="evenodd" clip-rule="evenodd" d="M67.0174 285.151C65.0009 285.151 63.3664 286.786 63.3664 288.802C63.3664 290.818 65.0009 292.453 67.0174 292.453C69.0339 292.453 70.6684 290.818 70.6684 288.802C70.6684 286.786 69.0339 285.151 67.0174 285.151Z" fill="white" fill-opacity="0.42"/>
<path fill-rule="evenodd" clip-rule="evenodd" d="M67.0174 316.834C65.0009 316.834 63.3664 318.469 63.3664 320.485C63.3664 322.501 65.0009 324.136 67.0174 324.136C69.0339 324.136 70.6684 322.501 70.6684 320.485C70.6684 318.469 69.0339 316.834 67.0174 316.834Z" fill="white" fill-opacity="0.42"/>
<path fill-rule="evenodd" clip-rule="evenodd" d="M67.0174 348.517C65.0009 348.517 63.3664 350.152 63.3664 352.168C63.3664 354.184 65.0009 355.819 67.0174 355.819C69.0339 355.819 70.6684 354.184 70.6684 352.168C70.6684 350.152 69.0339 348.517 67.0174 348.517Z" fill="white" fill-opacity="0.42"/>
<path fill-rule="evenodd" clip-rule="evenodd" d="M67.0174 380.2C65.0009 380.2 63.3664 381.835 63.3664 383.851C63.3664 385.868 65.0009 387.502 67.0174 387.502C69.0339 387.502 70.6684 385.868 70.6684 383.851C70.6684 381.835 69.0339 380.2 67.0174 380.2Z" fill="white" fill-opacity="0.42"/>
<path fill-rule="evenodd" clip-rule="evenodd" d="M67.0174 411.883C65.0009 411.883 63.3664 413.518 63.3664 415.534C63.3664 417.551 65.0009 419.185 67.0174 419.185C69.0339 419.185 70.6684 417.551 70.6684 415.534C70.6684 413.518 69.0339 411.883 67.0174 411.883Z" fill="white" fill-opacity="0.42"/>
<path fill-rule="evenodd" clip-rule="evenodd" d="M67.0174 443.567C65.0009 443.567 63.3664 445.202 63.3664 447.218C63.3664 449.234 65.0009 450.869 67.0174 450.869C69.0339 450.869 70.6684 449.234 70.6684 447.218C70.6684 445.202 69.0339 443.567 67.0174 443.567Z" fill="white" fill-opacity="0.42"/>
<path fill-rule="evenodd" clip-rule="evenodd" d="M67.0174 470.25C65.0009 470.25 63.3664 471.885 63.3664 473.901C63.3664 475.917 65.0009 477.552 67.0174 477.552C69.0339 477.552 70.6684 475.917 70.6684 473.901C70.6684 471.885 69.0339 470.25 67.0174 470.25Z" fill="white" fill-opacity="0.42"/>
<path fill-rule="evenodd" clip-rule="evenodd" d="M67.0174 496.933C65.0009 496.933 63.3664 498.568 63.3664 500.584C63.3664 502.6 65.0009 504.235 67.0174 504.235C69.0339 504.235 70.6684 502.6 70.6684 500.584C70.6684 498.568 69.0339 496.933 67.0174 496.933Z" fill="white" fill-opacity="0.42"/>
<path fill-rule="evenodd" clip-rule="evenodd" d="M98.7005 0.00244141C96.684 0.00244141 95.0495 1.63694 95.0495 3.65344C95.0495 5.66944 96.684 7.30444 98.7005 7.30444C100.717 7.30444 102.352 5.66944 102.352 3.65344C102.352 1.63694 100.717 0.00244141 98.7005 0.00244141Z" fill="white" fill-opacity="0.42"/>
<path fill-rule="evenodd" clip-rule="evenodd" d="M98.7005 31.6855C96.684 31.6855 95.0495 33.32 95.0495 35.3365C95.0495 37.3525 96.684 38.9875 98.7005 38.9875C100.717 38.9875 102.352 37.3525 102.352 35.3365C102.352 33.32 100.717 31.6855 98.7005 31.6855Z" fill="white" fill-opacity="0.42"/>
<path fill-rule="evenodd" clip-rule="evenodd" d="M98.7005 63.3686C96.684 63.3686 95.0495 65.0031 95.0495 67.0196C95.0495 69.0361 96.684 70.6706 98.7005 70.6706C100.717 70.6706 102.352 69.0361 102.352 67.0196C102.352 65.0031 100.717 63.3686 98.7005 63.3686Z" fill="white" fill-opacity="0.42"/>
<path fill-rule="evenodd" clip-rule="evenodd" d="M98.7005 95.0517C96.684 95.0517 95.0495 96.6867 95.0495 98.7027C95.0495 100.719 96.684 102.354 98.7005 102.354C100.717 102.354 102.352 100.719 102.352 98.7027C102.352 96.6867 100.717 95.0517 98.7005 95.0517Z" fill="white" fill-opacity="0.42"/>
<path fill-rule="evenodd" clip-rule="evenodd" d="M98.7005 126.735C96.684 126.735 95.0495 128.37 95.0495 130.386C95.0495 132.402 96.684 134.037 98.7005 134.037C100.717 134.037 102.352 132.402 102.352 130.386C102.352 128.37 100.717 126.735 98.7005 126.735Z" fill="white" fill-opacity="0.42"/>
<path fill-rule="evenodd" clip-rule="evenodd" d="M98.7005 158.418C96.684 158.418 95.0495 160.053 95.0495 162.069C95.0495 164.086 96.684 165.72 98.7005 165.72C100.717 165.72 102.352 164.086 102.352 162.069C102.352 160.053 100.717 158.418 98.7005 158.418Z" fill="white" fill-opacity="0.42"/>
<path fill-rule="evenodd" clip-rule="evenodd" d="M98.7005 190.101C96.684 190.101 95.0495 191.736 95.0495 193.752C95.0495 195.769 96.684 197.403 98.7005 197.403C100.717 197.403 102.352 195.769 102.352 193.752C102.352 191.736 100.717 190.101 98.7005 190.101Z" fill="white" fill-opacity="0.42"/>
<path fill-rule="evenodd" clip-rule="evenodd" d="M98.7005 221.784C96.684 221.784 95.0495 223.419 95.0495 225.435C95.0495 227.452 96.684 229.086 98.7005 229.086C100.717 229.086 102.352 227.452 102.352 225.435C102.352 223.419 100.717 221.784 98.7005 221.784Z" fill="white" fill-opacity="0.42"/>
<path fill-rule="evenodd" clip-rule="evenodd" d="M98.7005 253.467C96.684 253.467 95.0495 255.102 95.0495 257.119C95.0495 259.135 96.684 260.769 98.7005 260.769C100.717 260.769 102.352 259.135 102.352 257.119C102.352 255.102 100.717 253.467 98.7005 253.467Z" fill="white" fill-opacity="0.42"/>
<path fill-rule="evenodd" clip-rule="evenodd" d="M98.7005 285.151C96.684 285.151 95.0495 286.786 95.0495 288.802C95.0495 290.818 96.684 292.453 98.7005 292.453C100.717 292.453 102.352 290.818 102.352 288.802C102.352 286.786 100.717 285.151 98.7005 285.151Z" fill="white" fill-opacity="0.42"/>
<path fill-rule="evenodd" clip-rule="evenodd" d="M98.7005 316.834C96.684 316.834 95.0495 318.469 95.0495 320.485C95.0495 322.501 96.684 324.136 98.7005 324.136C100.717 324.136 102.352 322.501 102.352 320.485C102.352 318.469 100.717 316.834 98.7005 316.834Z" fill="white" fill-opacity="0.42"/>
<path fill-rule="evenodd" clip-rule="evenodd" d="M98.7005 348.517C96.684 348.517 95.0495 350.152 95.0495 352.168C95.0495 354.184 96.684 355.819 98.7005 355.819C100.717 355.819 102.352 354.184 102.352 352.168C102.352 350.152 100.717 348.517 98.7005 348.517Z" fill="white" fill-opacity="0.42"/>
<path fill-rule="evenodd" clip-rule="evenodd" d="M98.7005 380.2C96.684 380.2 95.0495 381.835 95.0495 383.851C95.0495 385.868 96.684 387.502 98.7005 387.502C100.717 387.502 102.352 385.868 102.352 383.851C102.352 381.835 100.717 380.2 98.7005 380.2Z" fill="white" fill-opacity="0.42"/>
<path fill-rule="evenodd" clip-rule="evenodd" d="M98.7005 411.883C96.684 411.883 95.0495 413.518 95.0495 415.534C95.0495 417.551 96.684 419.185 98.7005 419.185C100.717 419.185 102.352 417.551 102.352 415.534C102.352 413.518 100.717 411.883 98.7005 411.883Z" fill="white" fill-opacity="0.42"/>
<path fill-rule="evenodd" clip-rule="evenodd" d="M98.7005 443.567C96.684 443.567 95.0495 445.202 95.0495 447.218C95.0495 449.234 96.684 450.869 98.7005 450.869C100.717 450.869 102.352 449.234 102.352 447.218C102.352 445.202 100.717 443.567 98.7005 443.567Z" fill="white" fill-opacity="0.42"/>
<path fill-rule="evenodd" clip-rule="evenodd" d="M98.7005 470.25C96.684 470.25 95.0495 471.885 95.0495 473.901C95.0495 475.917 96.684 477.552 98.7005 477.552C100.717 477.552 102.352 475.917 102.352 473.901C102.352 471.885 100.717 470.25 98.7005 470.25Z" fill="white" fill-opacity="0.42"/>
<path fill-rule="evenodd" clip-rule="evenodd" d="M98.7005 496.933C96.684 496.933 95.0495 498.568 95.0495 500.584C95.0495 502.6 96.684 504.235 98.7005 504.235C100.717 504.235 102.352 502.6 102.352 500.584C102.352 498.568 100.717 496.933 98.7005 496.933Z" fill="white" fill-opacity="0.42"/>
<path fill-rule="evenodd" clip-rule="evenodd" d="M130.384 0.00244141C128.367 0.00244141 126.733 1.63694 126.733 3.65344C126.733 5.66944 128.367 7.30444 130.384 7.30444C132.4 7.30444 134.035 5.66944 134.035 3.65344C134.035 1.63694 132.4 0.00244141 130.384 0.00244141Z" fill="white" fill-opacity="0.42"/>
<path fill-rule="evenodd" clip-rule="evenodd" d="M130.384 31.6855C128.367 31.6855 126.733 33.32 126.733 35.3365C126.733 37.3525 128.367 38.9875 130.384 38.9875C132.4 38.9875 134.035 37.3525 134.035 35.3365C134.035 33.32 132.4 31.6855 130.384 31.6855Z" fill="white" fill-opacity="0.42"/>
<path fill-rule="evenodd" clip-rule="evenodd" d="M130.384 63.3686C128.367 63.3686 126.733 65.0031 126.733 67.0196C126.733 69.0361 128.367 70.6706 130.384 70.6706C132.4 70.6706 134.035 69.0361 134.035 67.0196C134.035 65.0031 132.4 63.3686 130.384 63.3686Z" fill="white" fill-opacity="0.42"/>
<path fill-rule="evenodd" clip-rule="evenodd" d="M130.384 95.0517C128.367 95.0517 126.733 96.6867 126.733 98.7027C126.733 100.719 128.367 102.354 130.384 102.354C132.4 102.354 134.035 100.719 134.035 98.7027C134.035 96.6867 132.4 95.0517 130.384 95.0517Z" fill="white" fill-opacity="0.42"/>
<path fill-rule="evenodd" clip-rule="evenodd" d="M130.384 126.735C128.367 126.735 126.733 128.37 126.733 130.386C126.733 132.402 128.367 134.037 130.384 134.037C132.4 134.037 134.035 132.402 134.035 130.386C134.035 128.37 132.4 126.735 130.384 126.735Z" fill="white" fill-opacity="0.42"/>
<path fill-rule="evenodd" clip-rule="evenodd" d="M130.384 158.418C128.367 158.418 126.733 160.053 126.733 162.069C126.733 164.086 128.367 165.72 130.384 165.72C132.4 165.72 134.035 164.086 134.035 162.069C134.035 160.053 132.4 158.418 130.384 158.418Z" fill="white" fill-opacity="0.42"/>
<path fill-rule="evenodd" clip-rule="evenodd" d="M130.384 190.101C128.367 190.101 126.733 191.736 126.733 193.752C126.733 195.769 128.367 197.403 130.384 197.403C132.4 197.403 134.035 195.769 134.035 193.752C134.035 191.736 132.4 190.101 130.384 190.101Z" fill="white" fill-opacity="0.42"/>
<path fill-rule="evenodd" clip-rule="evenodd" d="M130.384 221.784C128.367 221.784 126.733 223.419 126.733 225.435C126.733 227.452 128.367 229.086 130.384 229.086C132.4 229.086 134.035 227.452 134.035 225.435C134.035 223.419 132.4 221.784 130.384 221.784Z" fill="white" fill-opacity="0.42"/>
<path fill-rule="evenodd" clip-rule="evenodd" d="M130.384 253.467C128.367 253.467 126.733 255.102 126.733 257.119C126.733 259.135 128.367 260.769 130.384 260.769C132.4 260.769 134.035 259.135 134.035 257.119C134.035 255.102 132.4 253.467 130.384 253.467Z" fill="white" fill-opacity="0.42"/>
<path fill-rule="evenodd" clip-rule="evenodd" d="M130.384 285.151C128.367 285.151 126.733 286.786 126.733 288.802C126.733 290.818 128.367 292.453 130.384 292.453C132.4 292.453 134.035 290.818 134.035 288.802C134.035 286.786 132.4 285.151 130.384 285.151Z" fill="white" fill-opacity="0.42"/>
<path fill-rule="evenodd" clip-rule="evenodd" d="M130.384 316.834C128.367 316.834 126.733 318.469 126.733 320.485C126.733 322.501 128.367 324.136 130.384 324.136C132.4 324.136 134.035 322.501 134.035 320.485C134.035 318.469 132.4 316.834 130.384 316.834Z" fill="white" fill-opacity="0.42"/>
<path fill-rule="evenodd" clip-rule="evenodd" d="M130.384 348.517C128.367 348.517 126.733 350.152 126.733 352.168C126.733 354.184 128.367 355.819 130.384 355.819C132.4 355.819 134.035 354.184 134.035 352.168C134.035 350.152 132.4 348.517 130.384 348.517Z" fill="white" fill-opacity="0.42"/>
<path fill-rule="evenodd" clip-rule="evenodd" d="M130.384 380.2C128.367 380.2 126.733 381.835 126.733 383.851C126.733 385.868 128.367 387.502 130.384 387.502C132.4 387.502 134.035 385.868 134.035 383.851C134.035 381.835 132.4 380.2 130.384 380.2Z" fill="white" fill-opacity="0.42"/>
<path fill-rule="evenodd" clip-rule="evenodd" d="M130.384 411.883C128.367 411.883 126.733 413.518 126.733 415.534C126.733 417.551 128.367 419.185 130.384 419.185C132.4 419.185 134.035 417.551 134.035 415.534C134.035 413.518 132.4 411.883 130.384 411.883Z" fill="white" fill-opacity="0.42"/>
<path fill-rule="evenodd" clip-rule="evenodd" d="M130.384 443.567C128.367 443.567 126.733 445.202 126.733 447.218C126.733 449.234 128.367 450.869 130.384 450.869C132.4 450.869 134.035 449.234 134.035 447.218C134.035 445.202 132.4 443.567 130.384 443.567Z" fill="white" fill-opacity="0.42"/>
<path fill-rule="evenodd" clip-rule="evenodd" d="M130.384 470.25C128.367 470.25 126.733 471.885 126.733 473.901C126.733 475.917 128.367 477.552 130.384 477.552C132.4 477.552 134.035 475.917 134.035 473.901C134.035 471.885 132.4 470.25 130.384 470.25Z" fill="white" fill-opacity="0.42"/>
<path fill-rule="evenodd" clip-rule="evenodd" d="M130.384 496.933C128.367 496.933 126.733 498.568 126.733 500.584C126.733 502.6 128.367 504.235 130.384 504.235C132.4 504.235 134.035 502.6 134.035 500.584C134.035 498.568 132.4 496.933 130.384 496.933Z" fill="white" fill-opacity="0.42"/>
<path fill-rule="evenodd" clip-rule="evenodd" d="M162.067 0.00244141C160.05 0.00244141 158.416 1.63694 158.416 3.65344C158.416 5.66944 160.05 7.30444 162.067 7.30444C164.083 7.30444 165.718 5.66944 165.718 3.65344C165.718 1.63694 164.083 0.00244141 162.067 0.00244141Z" fill="white" fill-opacity="0.42"/>
<path fill-rule="evenodd" clip-rule="evenodd" d="M162.067 31.6855C160.05 31.6855 158.416 33.32 158.416 35.3365C158.416 37.3525 160.05 38.9875 162.067 38.9875C164.083 38.9875 165.718 37.3525 165.718 35.3365C165.718 33.32 164.083 31.6855 162.067 31.6855Z" fill="white" fill-opacity="0.42"/>
<path fill-rule="evenodd" clip-rule="evenodd" d="M162.067 63.3686C160.05 63.3686 158.416 65.0031 158.416 67.0196C158.416 69.0361 160.05 70.6706 162.067 70.6706C164.083 70.6706 165.718 69.0361 165.718 67.0196C165.718 65.0031 164.083 63.3686 162.067 63.3686Z" fill="white" fill-opacity="0.42"/>
<path fill-rule="evenodd" clip-rule="evenodd" d="M162.067 95.0517C160.05 95.0517 158.416 96.6867 158.416 98.7027C158.416 100.719 160.05 102.354 162.067 102.354C164.083 102.354 165.718 100.719 165.718 98.7027C165.718 96.6867 164.083 95.0517 162.067 95.0517Z" fill="white" fill-opacity="0.42"/>
<path fill-rule="evenodd" clip-rule="evenodd" d="M162.067 126.735C160.05 126.735 158.416 128.37 158.416 130.386C158.416 132.402 160.05 134.037 162.067 134.037C164.083 134.037 165.718 132.402 165.718 130.386C165.718 128.37 164.083 126.735 162.067 126.735Z" fill="white" fill-opacity="0.42"/>
<path fill-rule="evenodd" clip-rule="evenodd" d="M162.067 158.418C160.05 158.418 158.416 160.053 158.416 162.069C158.416 164.086 160.05 165.72 162.067 165.72C164.083 165.72 165.718 164.086 165.718 162.069C165.718 160.053 164.083 158.418 162.067 158.418Z" fill="white" fill-opacity="0.42"/>
<path fill-rule="evenodd" clip-rule="evenodd" d="M162.067 190.101C160.05 190.101 158.416 191.736 158.416 193.752C158.416 195.769 160.05 197.403 162.067 197.403C164.083 197.403 165.718 195.769 165.718 193.752C165.718 191.736 164.083 190.101 162.067 190.101Z" fill="white" fill-opacity="0.42"/>
<path fill-rule="evenodd" clip-rule="evenodd" d="M162.067 221.784C160.05 221.784 158.416 223.419 158.416 225.435C158.416 227.452 160.05 229.086 162.067 229.086C164.083 229.086 165.718 227.452 165.718 225.435C165.718 223.419 164.083 221.784 162.067 221.784Z" fill="white" fill-opacity="0.42"/>
<path fill-rule="evenodd" clip-rule="evenodd" d="M162.067 253.467C160.05 253.467 158.416 255.102 158.416 257.119C158.416 259.135 160.05 260.769 162.067 260.769C164.083 260.769 165.718 259.135 165.718 257.119C165.718 255.102 164.083 253.467 162.067 253.467Z" fill="white" fill-opacity="0.42"/>
<path fill-rule="evenodd" clip-rule="evenodd" d="M162.067 285.151C160.05 285.151 158.416 286.786 158.416 288.802C158.416 290.818 160.05 292.453 162.067 292.453C164.083 292.453 165.718 290.818 165.718 288.802C165.718 286.786 164.083 285.151 162.067 285.151Z" fill="white" fill-opacity="0.42"/>
<path fill-rule="evenodd" clip-rule="evenodd" d="M162.067 316.834C160.05 316.834 158.416 318.469 158.416 320.485C158.416 322.501 160.05 324.136 162.067 324.136C164.083 324.136 165.718 322.501 165.718 320.485C165.718 318.469 164.083 316.834 162.067 316.834Z" fill="white" fill-opacity="0.42"/>
<path fill-rule="evenodd" clip-rule="evenodd" d="M162.067 348.517C160.05 348.517 158.416 350.152 158.416 352.168C158.416 354.184 160.05 355.819 162.067 355.819C164.083 355.819 165.718 354.184 165.718 352.168C165.718 350.152 164.083 348.517 162.067 348.517Z" fill="white" fill-opacity="0.42"/>
<path fill-rule="evenodd" clip-rule="evenodd" d="M162.067 380.2C160.05 380.2 158.416 381.835 158.416 383.851C158.416 385.868 160.05 387.502 162.067 387.502C164.083 387.502 165.718 385.868 165.718 383.851C165.718 381.835 164.083 380.2 162.067 380.2Z" fill="white" fill-opacity="0.42"/>
<path fill-rule="evenodd" clip-rule="evenodd" d="M162.067 411.883C160.05 411.883 158.416 413.518 158.416 415.534C158.416 417.551 160.05 419.185 162.067 419.185C164.083 419.185 165.718 417.551 165.718 415.534C165.718 413.518 164.083 411.883 162.067 411.883Z" fill="white" fill-opacity="0.42"/>
<path fill-rule="evenodd" clip-rule="evenodd" d="M162.067 443.567C160.05 443.567 158.416 445.202 158.416 447.218C158.416 449.234 160.05 450.869 162.067 450.869C164.083 450.869 165.718 449.234 165.718 447.218C165.718 445.202 164.083 443.567 162.067 443.567Z" fill="white" fill-opacity="0.42"/>
<path fill-rule="evenodd" clip-rule="evenodd" d="M162.067 470.25C160.05 470.25 158.416 471.885 158.416 473.901C158.416 475.917 160.05 477.552 162.067 477.552C164.083 477.552 165.718 475.917 165.718 473.901C165.718 471.885 164.083 470.25 162.067 470.25Z" fill="white" fill-opacity="0.42"/>
<path fill-rule="evenodd" clip-rule="evenodd" d="M162.067 496.933C160.05 496.933 158.416 498.568 158.416 500.584C158.416 502.6 160.05 504.235 162.067 504.235C164.083 504.235 165.718 502.6 165.718 500.584C165.718 498.568 164.083 496.933 162.067 496.933Z" fill="white" fill-opacity="0.42"/>
<path fill-rule="evenodd" clip-rule="evenodd" d="M193.75 0.00244141C191.734 0.00244141 190.099 1.63694 190.099 3.65344C190.099 5.66944 191.734 7.30444 193.75 7.30444C195.767 7.30444 197.401 5.66944 197.401 3.65344C197.401 1.63694 195.767 0.00244141 193.75 0.00244141Z" fill="white" fill-opacity="0.42"/>
<path fill-rule="evenodd" clip-rule="evenodd" d="M193.75 31.6855C191.734 31.6855 190.099 33.32 190.099 35.3365C190.099 37.3525 191.734 38.9875 193.75 38.9875C195.767 38.9875 197.401 37.3525 197.401 35.3365C197.401 33.32 195.767 31.6855 193.75 31.6855Z" fill="white" fill-opacity="0.42"/>
<path fill-rule="evenodd" clip-rule="evenodd" d="M193.75 63.3686C191.734 63.3686 190.099 65.0031 190.099 67.0196C190.099 69.0361 191.734 70.6706 193.75 70.6706C195.767 70.6706 197.401 69.0361 197.401 67.0196C197.401 65.0031 195.767 63.3686 193.75 63.3686Z" fill="white" fill-opacity="0.42"/>
<path fill-rule="evenodd" clip-rule="evenodd" d="M193.75 95.0517C191.734 95.0517 190.099 96.6867 190.099 98.7027C190.099 100.719 191.734 102.354 193.75 102.354C195.767 102.354 197.401 100.719 197.401 98.7027C197.401 96.6867 195.767 95.0517 193.75 95.0517Z" fill="white" fill-opacity="0.42"/>
<path fill-rule="evenodd" clip-rule="evenodd" d="M193.75 126.735C191.734 126.735 190.099 128.37 190.099 130.386C190.099 132.402 191.734 134.037 193.75 134.037C195.767 134.037 197.401 132.402 197.401 130.386C197.401 128.37 195.767 126.735 193.75 126.735Z" fill="white" fill-opacity="0.42"/>
<path fill-rule="evenodd" clip-rule="evenodd" d="M193.75 158.418C191.734 158.418 190.099 160.053 190.099 162.069C190.099 164.086 191.734 165.72 193.75 165.72C195.767 165.72 197.401 164.086 197.401 162.069C197.401 160.053 195.767 158.418 193.75 158.418Z" fill="white" fill-opacity="0.42"/>
<path fill-rule="evenodd" clip-rule="evenodd" d="M193.75 190.101C191.734 190.101 190.099 191.736 190.099 193.752C190.099 195.769 191.734 197.403 193.75 197.403C195.767 197.403 197.401 195.769 197.401 193.752C197.401 191.736 195.767 190.101 193.75 190.101Z" fill="white" fill-opacity="0.42"/>
<path fill-rule="evenodd" clip-rule="evenodd" d="M193.75 221.784C191.734 221.784 190.099 223.419 190.099 225.435C190.099 227.452 191.734 229.086 193.75 229.086C195.767 229.086 197.401 227.452 197.401 225.435C197.401 223.419 195.767 221.784 193.75 221.784Z" fill="white" fill-opacity="0.42"/>
<path fill-rule="evenodd" clip-rule="evenodd" d="M193.75 253.467C191.734 253.467 190.099 255.102 190.099 257.119C190.099 259.135 191.734 260.769 193.75 260.769C195.767 260.769 197.401 259.135 197.401 257.119C197.401 255.102 195.767 253.467 193.75 253.467Z" fill="white" fill-opacity="0.42"/>
<path fill-rule="evenodd" clip-rule="evenodd" d="M193.75 285.151C191.734 285.151 190.099 286.786 190.099 288.802C190.099 290.818 191.734 292.453 193.75 292.453C195.767 292.453 197.401 290.818 197.401 288.802C197.401 286.786 195.767 285.151 193.75 285.151Z" fill="white" fill-opacity="0.42"/>
<path fill-rule="evenodd" clip-rule="evenodd" d="M193.75 316.834C191.734 316.834 190.099 318.469 190.099 320.485C190.099 322.501 191.734 324.136 193.75 324.136C195.767 324.136 197.401 322.501 197.401 320.485C197.401 318.469 195.767 316.834 193.75 316.834Z" fill="white" fill-opacity="0.42"/>
<path fill-rule="evenodd" clip-rule="evenodd" d="M193.75 348.517C191.734 348.517 190.099 350.152 190.099 352.168C190.099 354.184 191.734 355.819 193.75 355.819C195.767 355.819 197.401 354.184 197.401 352.168C197.401 350.152 195.767 348.517 193.75 348.517Z" fill="white" fill-opacity="0.42"/>
<path fill-rule="evenodd" clip-rule="evenodd" d="M193.75 380.2C191.734 380.2 190.099 381.835 190.099 383.851C190.099 385.868 191.734 387.502 193.75 387.502C195.767 387.502 197.401 385.868 197.401 383.851C197.401 381.835 195.767 380.2 193.75 380.2Z" fill="white" fill-opacity="0.42"/>
<path fill-rule="evenodd" clip-rule="evenodd" d="M193.75 411.883C191.734 411.883 190.099 413.518 190.099 415.534C190.099 417.551 191.734 419.185 193.75 419.185C195.767 419.185 197.401 417.551 197.401 415.534C197.401 413.518 195.767 411.883 193.75 411.883Z" fill="white" fill-opacity="0.42"/>
<path fill-rule="evenodd" clip-rule="evenodd" d="M193.75 443.567C191.734 443.567 190.099 445.202 190.099 447.218C190.099 449.234 191.734 450.869 193.75 450.869C195.767 450.869 197.401 449.234 197.401 447.218C197.401 445.202 195.767 443.567 193.75 443.567Z" fill="white" fill-opacity="0.42"/>
<path fill-rule="evenodd" clip-rule="evenodd" d="M193.75 470.25C191.734 470.25 190.099 471.885 190.099 473.901C190.099 475.917 191.734 477.552 193.75 477.552C195.767 477.552 197.401 475.917 197.401 473.901C197.401 471.885 195.767 470.25 193.75 470.25Z" fill="white" fill-opacity="0.42"/>
<path fill-rule="evenodd" clip-rule="evenodd" d="M193.75 496.933C191.734 496.933 190.099 498.568 190.099 500.584C190.099 502.6 191.734 504.235 193.75 504.235C195.767 504.235 197.401 502.6 197.401 500.584C197.401 498.568 195.767 496.933 193.75 496.933Z" fill="white" fill-opacity="0.42"/>
<path fill-rule="evenodd" clip-rule="evenodd" d="M225.433 0.00244141C223.417 0.00244141 221.782 1.63694 221.782 3.65344C221.782 5.66944 223.417 7.30444 225.433 7.30444C227.45 7.30444 229.084 5.66944 229.084 3.65344C229.084 1.63694 227.45 0.00244141 225.433 0.00244141Z" fill="white" fill-opacity="0.42"/>
<path fill-rule="evenodd" clip-rule="evenodd" d="M225.433 31.6855C223.417 31.6855 221.782 33.32 221.782 35.3365C221.782 37.3525 223.417 38.9875 225.433 38.9875C227.45 38.9875 229.084 37.3525 229.084 35.3365C229.084 33.32 227.45 31.6855 225.433 31.6855Z" fill="white" fill-opacity="0.42"/>
<path fill-rule="evenodd" clip-rule="evenodd" d="M225.433 63.3686C223.417 63.3686 221.782 65.0031 221.782 67.0196C221.782 69.0361 223.417 70.6706 225.433 70.6706C227.45 70.6706 229.084 69.0361 229.084 67.0196C229.084 65.0031 227.45 63.3686 225.433 63.3686Z" fill="white" fill-opacity="0.42"/>
<path fill-rule="evenodd" clip-rule="evenodd" d="M225.433 95.0517C223.417 95.0517 221.782 96.6867 221.782 98.7027C221.782 100.719 223.417 102.354 225.433 102.354C227.45 102.354 229.084 100.719 229.084 98.7027C229.084 96.6867 227.45 95.0517 225.433 95.0517Z" fill="white" fill-opacity="0.42"/>
<path fill-rule="evenodd" clip-rule="evenodd" d="M225.433 126.735C223.417 126.735 221.782 128.37 221.782 130.386C221.782 132.402 223.417 134.037 225.433 134.037C227.45 134.037 229.084 132.402 229.084 130.386C229.084 128.37 227.45 126.735 225.433 126.735Z" fill="white" fill-opacity="0.42"/>
<path fill-rule="evenodd" clip-rule="evenodd" d="M225.433 158.418C223.417 158.418 221.782 160.053 221.782 162.069C221.782 164.086 223.417 165.72 225.433 165.72C227.45 165.72 229.084 164.086 229.084 162.069C229.084 160.053 227.45 158.418 225.433 158.418Z" fill="white" fill-opacity="0.42"/>
<path fill-rule="evenodd" clip-rule="evenodd" d="M225.433 190.101C223.417 190.101 221.782 191.736 221.782 193.752C221.782 195.769 223.417 197.403 225.433 197.403C227.45 197.403 229.084 195.769 229.084 193.752C229.084 191.736 227.45 190.101 225.433 190.101Z" fill="white" fill-opacity="0.42"/>
<path fill-rule="evenodd" clip-rule="evenodd" d="M225.433 221.784C223.417 221.784 221.782 223.419 221.782 225.435C221.782 227.452 223.417 229.086 225.433 229.086C227.45 229.086 229.084 227.452 229.084 225.435C229.084 223.419 227.45 221.784 225.433 221.784Z" fill="white" fill-opacity="0.42"/>
<path fill-rule="evenodd" clip-rule="evenodd" d="M225.433 253.467C223.417 253.467 221.782 255.102 221.782 257.119C221.782 259.135 223.417 260.769 225.433 260.769C227.45 260.769 229.084 259.135 229.084 257.119C229.084 255.102 227.45 253.467 225.433 253.467Z" fill="white" fill-opacity="0.42"/>
<path fill-rule="evenodd" clip-rule="evenodd" d="M225.433 285.151C223.417 285.151 221.782 286.786 221.782 288.802C221.782 290.818 223.417 292.453 225.433 292.453C227.45 292.453 229.084 290.818 229.084 288.802C229.084 286.786 227.45 285.151 225.433 285.151Z" fill="white" fill-opacity="0.42"/>
<path fill-rule="evenodd" clip-rule="evenodd" d="M225.433 316.834C223.417 316.834 221.782 318.469 221.782 320.485C221.782 322.501 223.417 324.136 225.433 324.136C227.45 324.136 229.084 322.501 229.084 320.485C229.084 318.469 227.45 316.834 225.433 316.834Z" fill="white" fill-opacity="0.42"/>
<path fill-rule="evenodd" clip-rule="evenodd" d="M225.433 348.517C223.417 348.517 221.782 350.152 221.782 352.168C221.782 354.184 223.417 355.819 225.433 355.819C227.45 355.819 229.084 354.184 229.084 352.168C229.084 350.152 227.45 348.517 225.433 348.517Z" fill="white" fill-opacity="0.42"/>
<path fill-rule="evenodd" clip-rule="evenodd" d="M225.433 380.2C223.417 380.2 221.782 381.835 221.782 383.851C221.782 385.868 223.417 387.502 225.433 387.502C227.45 387.502 229.084 385.868 229.084 383.851C229.084 381.835 227.45 380.2 225.433 380.2Z" fill="white" fill-opacity="0.42"/>
<path fill-rule="evenodd" clip-rule="evenodd" d="M225.433 411.883C223.417 411.883 221.782 413.518 221.782 415.534C221.782 417.551 223.417 419.185 225.433 419.185C227.45 419.185 229.084 417.551 229.084 415.534C229.084 413.518 227.45 411.883 225.433 411.883Z" fill="white" fill-opacity="0.42"/>
<path fill-rule="evenodd" clip-rule="evenodd" d="M225.433 443.567C223.417 443.567 221.782 445.202 221.782 447.218C221.782 449.234 223.417 450.869 225.433 450.869C227.45 450.869 229.084 449.234 229.084 447.218C229.084 445.202 227.45 443.567 225.433 443.567Z" fill="white" fill-opacity="0.42"/>
<path fill-rule="evenodd" clip-rule="evenodd" d="M225.433 470.25C223.417 470.25 221.782 471.885 221.782 473.901C221.782 475.917 223.417 477.552 225.433 477.552C227.45 477.552 229.084 475.917 229.084 473.901C229.084 471.885 227.45 470.25 225.433 470.25Z" fill="white" fill-opacity="0.42"/>
<path fill-rule="evenodd" clip-rule="evenodd" d="M225.433 496.933C223.417 496.933 221.782 498.568 221.782 500.584C221.782 502.6 223.417 504.235 225.433 504.235C227.45 504.235 229.084 502.6 229.084 500.584C229.084 498.568 227.45 496.933 225.433 496.933Z" fill="white" fill-opacity="0.42"/>
<path fill-rule="evenodd" clip-rule="evenodd" d="M257.116 0.00244141C255.1 0.00244141 253.465 1.63694 253.465 3.65344C253.465 5.66944 255.1 7.30444 257.116 7.30444C259.133 7.30444 260.767 5.66944 260.767 3.65344C260.767 1.63694 259.133 0.00244141 257.116 0.00244141Z" fill="white" fill-opacity="0.42"/>
<path fill-rule="evenodd" clip-rule="evenodd" d="M257.116 31.6855C255.1 31.6855 253.465 33.32 253.465 35.3365C253.465 37.3525 255.1 38.9875 257.116 38.9875C259.133 38.9875 260.767 37.3525 260.767 35.3365C260.767 33.32 259.133 31.6855 257.116 31.6855Z" fill="white" fill-opacity="0.42"/>
<path fill-rule="evenodd" clip-rule="evenodd" d="M257.116 63.3686C255.1 63.3686 253.465 65.0031 253.465 67.0196C253.465 69.0361 255.1 70.6706 257.116 70.6706C259.133 70.6706 260.767 69.0361 260.767 67.0196C260.767 65.0031 259.133 63.3686 257.116 63.3686Z" fill="white" fill-opacity="0.42"/>
<path fill-rule="evenodd" clip-rule="evenodd" d="M257.116 95.0517C255.1 95.0517 253.465 96.6867 253.465 98.7027C253.465 100.719 255.1 102.354 257.116 102.354C259.133 102.354 260.767 100.719 260.767 98.7027C260.767 96.6867 259.133 95.0517 257.116 95.0517Z" fill="white" fill-opacity="0.42"/>
<path fill-rule="evenodd" clip-rule="evenodd" d="M257.116 126.735C255.1 126.735 253.465 128.37 253.465 130.386C253.465 132.402 255.1 134.037 257.116 134.037C259.133 134.037 260.767 132.402 260.767 130.386C260.767 128.37 259.133 126.735 257.116 126.735Z" fill="white" fill-opacity="0.42"/>
<path fill-rule="evenodd" clip-rule="evenodd" d="M257.116 158.418C255.1 158.418 253.465 160.053 253.465 162.069C253.465 164.086 255.1 165.72 257.116 165.72C259.133 165.72 260.767 164.086 260.767 162.069C260.767 160.053 259.133 158.418 257.116 158.418Z" fill="white" fill-opacity="0.42"/>
<path fill-rule="evenodd" clip-rule="evenodd" d="M257.116 190.101C255.1 190.101 253.465 191.736 253.465 193.752C253.465 195.769 255.1 197.403 257.116 197.403C259.133 197.403 260.767 195.769 260.767 193.752C260.767 191.736 259.133 190.101 257.116 190.101Z" fill="white" fill-opacity="0.42"/>
<path fill-rule="evenodd" clip-rule="evenodd" d="M257.116 221.784C255.1 221.784 253.465 223.419 253.465 225.435C253.465 227.452 255.1 229.086 257.116 229.086C259.133 229.086 260.767 227.452 260.767 225.435C260.767 223.419 259.133 221.784 257.116 221.784Z" fill="white" fill-opacity="0.42"/>
<path fill-rule="evenodd" clip-rule="evenodd" d="M257.116 253.467C255.1 253.467 253.465 255.102 253.465 257.119C253.465 259.135 255.1 260.769 257.116 260.769C259.133 260.769 260.767 259.135 260.767 257.119C260.767 255.102 259.133 253.467 257.116 253.467Z" fill="white" fill-opacity="0.42"/>
<path fill-rule="evenodd" clip-rule="evenodd" d="M257.116 285.151C255.1 285.151 253.465 286.786 253.465 288.802C253.465 290.818 255.1 292.453 257.116 292.453C259.133 292.453 260.767 290.818 260.767 288.802C260.767 286.786 259.133 285.151 257.116 285.151Z" fill="white" fill-opacity="0.42"/>
<path fill-rule="evenodd" clip-rule="evenodd" d="M257.116 316.834C255.1 316.834 253.465 318.469 253.465 320.485C253.465 322.501 255.1 324.136 257.116 324.136C259.133 324.136 260.767 322.501 260.767 320.485C260.767 318.469 259.133 316.834 257.116 316.834Z" fill="white" fill-opacity="0.42"/>
<path fill-rule="evenodd" clip-rule="evenodd" d="M257.116 348.517C255.1 348.517 253.465 350.152 253.465 352.168C253.465 354.184 255.1 355.819 257.116 355.819C259.133 355.819 260.767 354.184 260.767 352.168C260.767 350.152 259.133 348.517 257.116 348.517Z" fill="white" fill-opacity="0.42"/>
<path fill-rule="evenodd" clip-rule="evenodd" d="M257.116 380.2C255.1 380.2 253.465 381.835 253.465 383.851C253.465 385.868 255.1 387.502 257.116 387.502C259.133 387.502 260.767 385.868 260.767 383.851C260.767 381.835 259.133 380.2 257.116 380.2Z" fill="white" fill-opacity="0.42"/>
<path fill-rule="evenodd" clip-rule="evenodd" d="M257.116 411.883C255.1 411.883 253.465 413.518 253.465 415.534C253.465 417.551 255.1 419.185 257.116 419.185C259.133 419.185 260.767 417.551 260.767 415.534C260.767 413.518 259.133 411.883 257.116 411.883Z" fill="white" fill-opacity="0.42"/>
<path fill-rule="evenodd" clip-rule="evenodd" d="M257.116 443.567C255.1 443.567 253.465 445.202 253.465 447.218C253.465 449.234 255.1 450.869 257.116 450.869C259.133 450.869 260.767 449.234 260.767 447.218C260.767 445.202 259.133 443.567 257.116 443.567Z" fill="white" fill-opacity="0.42"/>
<path fill-rule="evenodd" clip-rule="evenodd" d="M257.116 470.25C255.1 470.25 253.465 471.885 253.465 473.901C253.465 475.917 255.1 477.552 257.116 477.552C259.133 477.552 260.767 475.917 260.767 473.901C260.767 471.885 259.133 470.25 257.116 470.25Z" fill="white" fill-opacity="0.42"/>
<path fill-rule="evenodd" clip-rule="evenodd" d="M257.116 496.933C255.1 496.933 253.465 498.568 253.465 500.584C253.465 502.6 255.1 504.235 257.116 504.235C259.133 504.235 260.767 502.6 260.767 500.584C260.767 498.568 259.133 496.933 257.116 496.933Z" fill="white" fill-opacity="0.42"/>
<path fill-rule="evenodd" clip-rule="evenodd" d="M288.799 0.00244141C286.783 0.00244141 285.148 1.63694 285.148 3.65344C285.148 5.66944 286.783 7.30444 288.799 7.30444C290.816 7.30444 292.451 5.66944 292.451 3.65344C292.451 1.63694 290.816 0.00244141 288.799 0.00244141Z" fill="white" fill-opacity="0.42"/>
<path fill-rule="evenodd" clip-rule="evenodd" d="M288.799 31.6855C286.783 31.6855 285.148 33.32 285.148 35.3365C285.148 37.3525 286.783 38.9875 288.799 38.9875C290.816 38.9875 292.451 37.3525 292.451 35.3365C292.451 33.32 290.816 31.6855 288.799 31.6855Z" fill="white" fill-opacity="0.42"/>
<path fill-rule="evenodd" clip-rule="evenodd" d="M288.799 63.3686C286.783 63.3686 285.148 65.0031 285.148 67.0196C285.148 69.0361 286.783 70.6706 288.799 70.6706C290.816 70.6706 292.451 69.0361 292.451 67.0196C292.451 65.0031 290.816 63.3686 288.799 63.3686Z" fill="white" fill-opacity="0.42"/>
<path fill-rule="evenodd" clip-rule="evenodd" d="M288.799 95.0517C286.783 95.0517 285.148 96.6867 285.148 98.7027C285.148 100.719 286.783 102.354 288.799 102.354C290.816 102.354 292.451 100.719 292.451 98.7027C292.451 96.6867 290.816 95.0517 288.799 95.0517Z" fill="white" fill-opacity="0.42"/>
<path fill-rule="evenodd" clip-rule="evenodd" d="M288.799 126.735C286.783 126.735 285.148 128.37 285.148 130.386C285.148 132.402 286.783 134.037 288.799 134.037C290.816 134.037 292.451 132.402 292.451 130.386C292.451 128.37 290.816 126.735 288.799 126.735Z" fill="white" fill-opacity="0.42"/>
<path fill-rule="evenodd" clip-rule="evenodd" d="M288.799 158.418C286.783 158.418 285.148 160.053 285.148 162.069C285.148 164.086 286.783 165.72 288.799 165.72C290.816 165.72 292.451 164.086 292.451 162.069C292.451 160.053 290.816 158.418 288.799 158.418Z" fill="white" fill-opacity="0.42"/>
<path fill-rule="evenodd" clip-rule="evenodd" d="M288.799 190.101C286.783 190.101 285.148 191.736 285.148 193.752C285.148 195.769 286.783 197.403 288.799 197.403C290.816 197.403 292.451 195.769 292.451 193.752C292.451 191.736 290.816 190.101 288.799 190.101Z" fill="white" fill-opacity="0.42"/>
<path fill-rule="evenodd" clip-rule="evenodd" d="M288.799 221.784C286.783 221.784 285.148 223.419 285.148 225.435C285.148 227.452 286.783 229.086 288.799 229.086C290.816 229.086 292.451 227.452 292.451 225.435C292.451 223.419 290.816 221.784 288.799 221.784Z" fill="white" fill-opacity="0.42"/>
<path fill-rule="evenodd" clip-rule="evenodd" d="M288.799 253.467C286.783 253.467 285.148 255.102 285.148 257.119C285.148 259.135 286.783 260.769 288.799 260.769C290.816 260.769 292.451 259.135 292.451 257.119C292.451 255.102 290.816 253.467 288.799 253.467Z" fill="white" fill-opacity="0.42"/>
<path fill-rule="evenodd" clip-rule="evenodd" d="M288.799 285.151C286.783 285.151 285.148 286.786 285.148 288.802C285.148 290.818 286.783 292.453 288.799 292.453C290.816 292.453 292.451 290.818 292.451 288.802C292.451 286.786 290.816 285.151 288.799 285.151Z" fill="white" fill-opacity="0.42"/>
<path fill-rule="evenodd" clip-rule="evenodd" d="M288.799 316.834C286.783 316.834 285.148 318.469 285.148 320.485C285.148 322.501 286.783 324.136 288.799 324.136C290.816 324.136 292.451 322.501 292.451 320.485C292.451 318.469 290.816 316.834 288.799 316.834Z" fill="white" fill-opacity="0.42"/>
<path fill-rule="evenodd" clip-rule="evenodd" d="M288.799 348.517C286.783 348.517 285.148 350.152 285.148 352.168C285.148 354.184 286.783 355.819 288.799 355.819C290.816 355.819 292.451 354.184 292.451 352.168C292.451 350.152 290.816 348.517 288.799 348.517Z" fill="white" fill-opacity="0.42"/>
<path fill-rule="evenodd" clip-rule="evenodd" d="M288.799 380.2C286.783 380.2 285.148 381.835 285.148 383.851C285.148 385.868 286.783 387.502 288.799 387.502C290.816 387.502 292.451 385.868 292.451 383.851C292.451 381.835 290.816 380.2 288.799 380.2Z" fill="white" fill-opacity="0.42"/>
<path fill-rule="evenodd" clip-rule="evenodd" d="M288.799 411.883C286.783 411.883 285.148 413.518 285.148 415.534C285.148 417.551 286.783 419.185 288.799 419.185C290.816 419.185 292.451 417.551 292.451 415.534C292.451 413.518 290.816 411.883 288.799 411.883Z" fill="white" fill-opacity="0.42"/>
<path fill-rule="evenodd" clip-rule="evenodd" d="M288.799 443.567C286.783 443.567 285.148 445.202 285.148 447.218C285.148 449.234 286.783 450.869 288.799 450.869C290.816 450.869 292.451 449.234 292.451 447.218C292.451 445.202 290.816 443.567 288.799 443.567Z" fill="white" fill-opacity="0.42"/>
<path fill-rule="evenodd" clip-rule="evenodd" d="M288.799 470.25C286.783 470.25 285.148 471.885 285.148 473.901C285.148 475.917 286.783 477.552 288.799 477.552C290.816 477.552 292.451 475.917 292.451 473.901C292.451 471.885 290.816 470.25 288.799 470.25Z" fill="white" fill-opacity="0.42"/>
<path fill-rule="evenodd" clip-rule="evenodd" d="M288.799 496.933C286.783 496.933 285.148 498.568 285.148 500.584C285.148 502.6 286.783 504.235 288.799 504.235C290.816 504.235 292.451 502.6 292.451 500.584C292.451 498.568 290.816 496.933 288.799 496.933Z" fill="white" fill-opacity="0.42"/>
<path fill-rule="evenodd" clip-rule="evenodd" d="M320.483 0.00244141C318.466 0.00244141 316.831 1.63694 316.831 3.65344C316.831 5.66944 318.466 7.30444 320.483 7.30444C322.499 7.30444 324.134 5.66944 324.134 3.65344C324.134 1.63694 322.499 0.00244141 320.483 0.00244141Z" fill="white" fill-opacity="0.42"/>
<path fill-rule="evenodd" clip-rule="evenodd" d="M320.483 31.6855C318.466 31.6855 316.831 33.32 316.831 35.3365C316.831 37.3525 318.466 38.9875 320.483 38.9875C322.499 38.9875 324.134 37.3525 324.134 35.3365C324.134 33.32 322.499 31.6855 320.483 31.6855Z" fill="white" fill-opacity="0.42"/>
<path fill-rule="evenodd" clip-rule="evenodd" d="M320.483 63.3686C318.466 63.3686 316.831 65.0031 316.831 67.0196C316.831 69.0361 318.466 70.6706 320.483 70.6706C322.499 70.6706 324.134 69.0361 324.134 67.0196C324.134 65.0031 322.499 63.3686 320.483 63.3686Z" fill="white" fill-opacity="0.42"/>
<path fill-rule="evenodd" clip-rule="evenodd" d="M320.483 95.0517C318.466 95.0517 316.831 96.6867 316.831 98.7027C316.831 100.719 318.466 102.354 320.483 102.354C322.499 102.354 324.134 100.719 324.134 98.7027C324.134 96.6867 322.499 95.0517 320.483 95.0517Z" fill="white" fill-opacity="0.42"/>
<path fill-rule="evenodd" clip-rule="evenodd" d="M320.483 126.735C318.466 126.735 316.831 128.37 316.831 130.386C316.831 132.402 318.466 134.037 320.483 134.037C322.499 134.037 324.134 132.402 324.134 130.386C324.134 128.37 322.499 126.735 320.483 126.735Z" fill="white" fill-opacity="0.42"/>
<path fill-rule="evenodd" clip-rule="evenodd" d="M320.483 158.418C318.466 158.418 316.831 160.053 316.831 162.069C316.831 164.086 318.466 165.72 320.483 165.72C322.499 165.72 324.134 164.086 324.134 162.069C324.134 160.053 322.499 158.418 320.483 158.418Z" fill="white" fill-opacity="0.42"/>
<path fill-rule="evenodd" clip-rule="evenodd" d="M320.483 190.101C318.466 190.101 316.831 191.736 316.831 193.752C316.831 195.769 318.466 197.403 320.483 197.403C322.499 197.403 324.134 195.769 324.134 193.752C324.134 191.736 322.499 190.101 320.483 190.101Z" fill="white" fill-opacity="0.42"/>
<path fill-rule="evenodd" clip-rule="evenodd" d="M320.483 221.784C318.466 221.784 316.831 223.419 316.831 225.435C316.831 227.452 318.466 229.086 320.483 229.086C322.499 229.086 324.134 227.452 324.134 225.435C324.134 223.419 322.499 221.784 320.483 221.784Z" fill="white" fill-opacity="0.42"/>
<path fill-rule="evenodd" clip-rule="evenodd" d="M320.483 253.467C318.466 253.467 316.831 255.102 316.831 257.119C316.831 259.135 318.466 260.769 320.483 260.769C322.499 260.769 324.134 259.135 324.134 257.119C324.134 255.102 322.499 253.467 320.483 253.467Z" fill="white" fill-opacity="0.42"/>
<path fill-rule="evenodd" clip-rule="evenodd" d="M320.483 285.151C318.466 285.151 316.831 286.786 316.831 288.802C316.831 290.818 318.466 292.453 320.483 292.453C322.499 292.453 324.134 290.818 324.134 288.802C324.134 286.786 322.499 285.151 320.483 285.151Z" fill="white" fill-opacity="0.42"/>
<path fill-rule="evenodd" clip-rule="evenodd" d="M320.483 316.834C318.466 316.834 316.831 318.469 316.831 320.485C316.831 322.501 318.466 324.136 320.483 324.136C322.499 324.136 324.134 322.501 324.134 320.485C324.134 318.469 322.499 316.834 320.483 316.834Z" fill="white" fill-opacity="0.42"/>
<path fill-rule="evenodd" clip-rule="evenodd" d="M320.483 348.517C318.466 348.517 316.831 350.152 316.831 352.168C316.831 354.184 318.466 355.819 320.483 355.819C322.499 355.819 324.134 354.184 324.134 352.168C324.134 350.152 322.499 348.517 320.483 348.517Z" fill="white" fill-opacity="0.42"/>
<path fill-rule="evenodd" clip-rule="evenodd" d="M320.483 380.2C318.466 380.2 316.831 381.835 316.831 383.851C316.831 385.868 318.466 387.502 320.483 387.502C322.499 387.502 324.134 385.868 324.134 383.851C324.134 381.835 322.499 380.2 320.483 380.2Z" fill="white" fill-opacity="0.42"/>
<path fill-rule="evenodd" clip-rule="evenodd" d="M320.483 411.883C318.466 411.883 316.831 413.518 316.831 415.534C316.831 417.551 318.466 419.185 320.483 419.185C322.499 419.185 324.134 417.551 324.134 415.534C324.134 413.518 322.499 411.883 320.483 411.883Z" fill="white" fill-opacity="0.42"/>
<path fill-rule="evenodd" clip-rule="evenodd" d="M320.483 443.567C318.466 443.567 316.831 445.202 316.831 447.218C316.831 449.234 318.466 450.869 320.483 450.869C322.499 450.869 324.134 449.234 324.134 447.218C324.134 445.202 322.499 443.567 320.483 443.567Z" fill="white" fill-opacity="0.42"/>
<path fill-rule="evenodd" clip-rule="evenodd" d="M320.483 470.25C318.466 470.25 316.831 471.885 316.831 473.901C316.831 475.917 318.466 477.552 320.483 477.552C322.499 477.552 324.134 475.917 324.134 473.901C324.134 471.885 322.499 470.25 320.483 470.25Z" fill="white" fill-opacity="0.42"/>
<path fill-rule="evenodd" clip-rule="evenodd" d="M320.483 496.933C318.466 496.933 316.831 498.568 316.831 500.584C316.831 502.6 318.466 504.235 320.483 504.235C322.499 504.235 324.134 502.6 324.134 500.584C324.134 498.568 322.499 496.933 320.483 496.933Z" fill="white" fill-opacity="0.42"/>
<path fill-rule="evenodd" clip-rule="evenodd" d="M352.166 0.00244141C350.15 0.00244141 348.515 1.63694 348.515 3.65344C348.515 5.66944 350.15 7.30444 352.166 7.30444C354.182 7.30444 355.817 5.66944 355.817 3.65344C355.817 1.63694 354.182 0.00244141 352.166 0.00244141Z" fill="white" fill-opacity="0.42"/>
<path fill-rule="evenodd" clip-rule="evenodd" d="M352.166 31.6855C350.15 31.6855 348.515 33.32 348.515 35.3365C348.515 37.3525 350.15 38.9875 352.166 38.9875C354.182 38.9875 355.817 37.3525 355.817 35.3365C355.817 33.32 354.182 31.6855 352.166 31.6855Z" fill="white" fill-opacity="0.42"/>
<path fill-rule="evenodd" clip-rule="evenodd" d="M352.166 63.3686C350.15 63.3686 348.515 65.0031 348.515 67.0196C348.515 69.0361 350.15 70.6706 352.166 70.6706C354.182 70.6706 355.817 69.0361 355.817 67.0196C355.817 65.0031 354.182 63.3686 352.166 63.3686Z" fill="white" fill-opacity="0.42"/>
<path fill-rule="evenodd" clip-rule="evenodd" d="M352.166 95.0517C350.15 95.0517 348.515 96.6867 348.515 98.7027C348.515 100.719 350.15 102.354 352.166 102.354C354.182 102.354 355.817 100.719 355.817 98.7027C355.817 96.6867 354.182 95.0517 352.166 95.0517Z" fill="white" fill-opacity="0.42"/>
<path fill-rule="evenodd" clip-rule="evenodd" d="M352.166 126.735C350.15 126.735 348.515 128.37 348.515 130.386C348.515 132.402 350.15 134.037 352.166 134.037C354.182 134.037 355.817 132.402 355.817 130.386C355.817 128.37 354.182 126.735 352.166 126.735Z" fill="white" fill-opacity="0.42"/>
<path fill-rule="evenodd" clip-rule="evenodd" d="M352.166 158.418C350.15 158.418 348.515 160.053 348.515 162.069C348.515 164.086 350.15 165.72 352.166 165.72C354.182 165.72 355.817 164.086 355.817 162.069C355.817 160.053 354.182 158.418 352.166 158.418Z" fill="white" fill-opacity="0.42"/>
<path fill-rule="evenodd" clip-rule="evenodd" d="M352.166 190.101C350.15 190.101 348.515 191.736 348.515 193.752C348.515 195.769 350.15 197.403 352.166 197.403C354.182 197.403 355.817 195.769 355.817 193.752C355.817 191.736 354.182 190.101 352.166 190.101Z" fill="white" fill-opacity="0.42"/>
<path fill-rule="evenodd" clip-rule="evenodd" d="M352.166 221.784C350.15 221.784 348.515 223.419 348.515 225.435C348.515 227.452 350.15 229.086 352.166 229.086C354.182 229.086 355.817 227.452 355.817 225.435C355.817 223.419 354.182 221.784 352.166 221.784Z" fill="white" fill-opacity="0.42"/>
<path fill-rule="evenodd" clip-rule="evenodd" d="M352.166 253.467C350.15 253.467 348.515 255.102 348.515 257.119C348.515 259.135 350.15 260.769 352.166 260.769C354.182 260.769 355.817 259.135 355.817 257.119C355.817 255.102 354.182 253.467 352.166 253.467Z" fill="white" fill-opacity="0.42"/>
<path fill-rule="evenodd" clip-rule="evenodd" d="M352.166 285.151C350.15 285.151 348.515 286.786 348.515 288.802C348.515 290.818 350.15 292.453 352.166 292.453C354.182 292.453 355.817 290.818 355.817 288.802C355.817 286.786 354.182 285.151 352.166 285.151Z" fill="white" fill-opacity="0.42"/>
<path fill-rule="evenodd" clip-rule="evenodd" d="M352.166 316.834C350.15 316.834 348.515 318.469 348.515 320.485C348.515 322.501 350.15 324.136 352.166 324.136C354.182 324.136 355.817 322.501 355.817 320.485C355.817 318.469 354.182 316.834 352.166 316.834Z" fill="white" fill-opacity="0.42"/>
<path fill-rule="evenodd" clip-rule="evenodd" d="M352.166 348.517C350.15 348.517 348.515 350.152 348.515 352.168C348.515 354.184 350.15 355.819 352.166 355.819C354.182 355.819 355.817 354.184 355.817 352.168C355.817 350.152 354.182 348.517 352.166 348.517Z" fill="white" fill-opacity="0.42"/>
<path fill-rule="evenodd" clip-rule="evenodd" d="M352.166 380.2C350.15 380.2 348.515 381.835 348.515 383.851C348.515 385.868 350.15 387.502 352.166 387.502C354.182 387.502 355.817 385.868 355.817 383.851C355.817 381.835 354.182 380.2 352.166 380.2Z" fill="white" fill-opacity="0.42"/>
<path fill-rule="evenodd" clip-rule="evenodd" d="M352.166 411.883C350.15 411.883 348.515 413.518 348.515 415.534C348.515 417.551 350.15 419.185 352.166 419.185C354.182 419.185 355.817 417.551 355.817 415.534C355.817 413.518 354.182 411.883 352.166 411.883Z" fill="white" fill-opacity="0.42"/>
<path fill-rule="evenodd" clip-rule="evenodd" d="M352.166 443.567C350.15 443.567 348.515 445.202 348.515 447.218C348.515 449.234 350.15 450.869 352.166 450.869C354.182 450.869 355.817 449.234 355.817 447.218C355.817 445.202 354.182 443.567 352.166 443.567Z" fill="white" fill-opacity="0.42"/>
<path fill-rule="evenodd" clip-rule="evenodd" d="M352.166 470.25C350.15 470.25 348.515 471.885 348.515 473.901C348.515 475.917 350.15 477.552 352.166 477.552C354.182 477.552 355.817 475.917 355.817 473.901C355.817 471.885 354.182 470.25 352.166 470.25Z" fill="white" fill-opacity="0.42"/>
<path fill-rule="evenodd" clip-rule="evenodd" d="M352.166 496.933C350.15 496.933 348.515 498.568 348.515 500.584C348.515 502.6 350.15 504.235 352.166 504.235C354.182 504.235 355.817 502.6 355.817 500.584C355.817 498.568 354.182 496.933 352.166 496.933Z" fill="white" fill-opacity="0.42"/>
<path fill-rule="evenodd" clip-rule="evenodd" d="M383.849 0.00244141C381.833 0.00244141 380.198 1.63694 380.198 3.65344C380.198 5.66944 381.833 7.30444 383.849 7.30444C385.865 7.30444 387.5 5.66944 387.5 3.65344C387.5 1.63694 385.865 0.00244141 383.849 0.00244141Z" fill="white" fill-opacity="0.42"/>
<path fill-rule="evenodd" clip-rule="evenodd" d="M383.849 31.6855C381.833 31.6855 380.198 33.32 380.198 35.3365C380.198 37.3525 381.833 38.9875 383.849 38.9875C385.865 38.9875 387.5 37.3525 387.5 35.3365C387.5 33.32 385.865 31.6855 383.849 31.6855Z" fill="white" fill-opacity="0.42"/>
<path fill-rule="evenodd" clip-rule="evenodd" d="M383.849 63.3686C381.833 63.3686 380.198 65.0031 380.198 67.0196C380.198 69.0361 381.833 70.6706 383.849 70.6706C385.865 70.6706 387.5 69.0361 387.5 67.0196C387.5 65.0031 385.865 63.3686 383.849 63.3686Z" fill="white" fill-opacity="0.42"/>
<path fill-rule="evenodd" clip-rule="evenodd" d="M383.849 95.0517C381.833 95.0517 380.198 96.6867 380.198 98.7027C380.198 100.719 381.833 102.354 383.849 102.354C385.865 102.354 387.5 100.719 387.5 98.7027C387.5 96.6867 385.865 95.0517 383.849 95.0517Z" fill="white" fill-opacity="0.42"/>
<path fill-rule="evenodd" clip-rule="evenodd" d="M383.849 126.735C381.833 126.735 380.198 128.37 380.198 130.386C380.198 132.402 381.833 134.037 383.849 134.037C385.865 134.037 387.5 132.402 387.5 130.386C387.5 128.37 385.865 126.735 383.849 126.735Z" fill="white" fill-opacity="0.42"/>
<path fill-rule="evenodd" clip-rule="evenodd" d="M383.849 158.418C381.833 158.418 380.198 160.053 380.198 162.069C380.198 164.086 381.833 165.72 383.849 165.72C385.865 165.72 387.5 164.086 387.5 162.069C387.5 160.053 385.865 158.418 383.849 158.418Z" fill="white" fill-opacity="0.42"/>
<path fill-rule="evenodd" clip-rule="evenodd" d="M383.849 190.101C381.833 190.101 380.198 191.736 380.198 193.752C380.198 195.769 381.833 197.403 383.849 197.403C385.865 197.403 387.5 195.769 387.5 193.752C387.5 191.736 385.865 190.101 383.849 190.101Z" fill="white" fill-opacity="0.42"/>
<path fill-rule="evenodd" clip-rule="evenodd" d="M383.849 221.784C381.833 221.784 380.198 223.419 380.198 225.435C380.198 227.452 381.833 229.086 383.849 229.086C385.865 229.086 387.5 227.452 387.5 225.435C387.5 223.419 385.865 221.784 383.849 221.784Z" fill="white" fill-opacity="0.42"/>
<path fill-rule="evenodd" clip-rule="evenodd" d="M383.849 253.467C381.833 253.467 380.198 255.102 380.198 257.119C380.198 259.135 381.833 260.769 383.849 260.769C385.865 260.769 387.5 259.135 387.5 257.119C387.5 255.102 385.865 253.467 383.849 253.467Z" fill="white" fill-opacity="0.42"/>
<path fill-rule="evenodd" clip-rule="evenodd" d="M383.849 285.151C381.833 285.151 380.198 286.786 380.198 288.802C380.198 290.818 381.833 292.453 383.849 292.453C385.865 292.453 387.5 290.818 387.5 288.802C387.5 286.786 385.865 285.151 383.849 285.151Z" fill="white" fill-opacity="0.42"/>
<path fill-rule="evenodd" clip-rule="evenodd" d="M383.849 316.834C381.833 316.834 380.198 318.469 380.198 320.485C380.198 322.501 381.833 324.136 383.849 324.136C385.865 324.136 387.5 322.501 387.5 320.485C387.5 318.469 385.865 316.834 383.849 316.834Z" fill="white" fill-opacity="0.42"/>
<path fill-rule="evenodd" clip-rule="evenodd" d="M383.849 348.517C381.833 348.517 380.198 350.152 380.198 352.168C380.198 354.184 381.833 355.819 383.849 355.819C385.865 355.819 387.5 354.184 387.5 352.168C387.5 350.152 385.865 348.517 383.849 348.517Z" fill="white" fill-opacity="0.42"/>
<path fill-rule="evenodd" clip-rule="evenodd" d="M383.849 380.2C381.833 380.2 380.198 381.835 380.198 383.851C380.198 385.868 381.833 387.502 383.849 387.502C385.865 387.502 387.5 385.868 387.5 383.851C387.5 381.835 385.865 380.2 383.849 380.2Z" fill="white" fill-opacity="0.42"/>
<path fill-rule="evenodd" clip-rule="evenodd" d="M383.849 411.883C381.833 411.883 380.198 413.518 380.198 415.534C380.198 417.551 381.833 419.185 383.849 419.185C385.865 419.185 387.5 417.551 387.5 415.534C387.5 413.518 385.865 411.883 383.849 411.883Z" fill="white" fill-opacity="0.42"/>
<path fill-rule="evenodd" clip-rule="evenodd" d="M383.849 443.567C381.833 443.567 380.198 445.202 380.198 447.218C380.198 449.234 381.833 450.869 383.849 450.869C385.865 450.869 387.5 449.234 387.5 447.218C387.5 445.202 385.865 443.567 383.849 443.567Z" fill="white" fill-opacity="0.42"/>
<path fill-rule="evenodd" clip-rule="evenodd" d="M383.849 470.25C381.833 470.25 380.198 471.885 380.198 473.901C380.198 475.917 381.833 477.552 383.849 477.552C385.865 477.552 387.5 475.917 387.5 473.901C387.5 471.885 385.865 470.25 383.849 470.25Z" fill="white" fill-opacity="0.42"/>
<path fill-rule="evenodd" clip-rule="evenodd" d="M383.849 496.933C381.833 496.933 380.198 498.568 380.198 500.584C380.198 502.6 381.833 504.235 383.849 504.235C385.865 504.235 387.5 502.6 387.5 500.584C387.5 498.568 385.865 496.933 383.849 496.933Z" fill="white" fill-opacity="0.42"/>
</svg>
