<svg width="66" height="58" viewBox="0 0 66 58" fill="none" xmlns="http://www.w3.org/2000/svg">
<path fill-rule="evenodd" clip-rule="evenodd" d="M63.25 26.2011H49.5C47.9875 26.2011 46.75 27.4378 46.75 28.9494C46.75 30.4609 47.9875 31.6977 49.5 31.6977H63.25C64.7625 31.6977 66 30.4609 66 28.9494C66 27.4378 64.7625 26.2011 63.25 26.2011Z" fill="#D6BD96"/>
<path fill-rule="evenodd" clip-rule="evenodd" d="M19.25 28.9494C19.25 27.4378 18.0125 26.2011 16.5 26.2011H2.75C1.2375 26.2011 0 27.4378 0 28.9494C0 30.4609 1.2375 31.6977 2.75 31.6977H16.5C18.0125 31.6977 19.25 30.4609 19.25 28.9494Z" fill="#D6BD96"/>
<path fill-rule="evenodd" clip-rule="evenodd" d="M44.9109 22.0786C45.6672 23.4012 47.3516 23.8478 48.675 23.0921L60.586 16.2213C61.9094 15.4656 62.3563 13.7822 61.6 12.4596C60.8438 11.137 59.1594 10.6904 57.836 11.4462L45.925 18.3169C44.6016 19.0899 44.1547 20.756 44.9109 22.0786Z" fill="#D6BD96"/>
<path fill-rule="evenodd" clip-rule="evenodd" d="M21.0891 35.8201C20.3328 34.4975 18.6484 34.0509 17.325 34.8067L5.41405 41.6774C4.09061 42.4332 3.64374 44.1165 4.39999 45.4391C5.15624 46.7617 6.84061 47.2083 8.16405 46.4525L20.075 39.5818C21.3984 38.8089 21.8453 37.1427 21.0891 35.8201Z" fill="#D6BD96"/>
<path fill-rule="evenodd" clip-rule="evenodd" d="M43.6391 41.8491C42.8828 40.5265 41.1984 40.0799 39.875 40.8357C38.5516 41.5915 38.1047 43.2748 38.8609 44.5974L45.7359 56.501C46.4922 57.8236 48.1766 58.2702 49.5 57.5144C50.8234 56.7586 51.2703 55.0753 50.5141 53.7527L43.6391 41.8491Z" fill="#D6BD96"/>
<path fill-rule="evenodd" clip-rule="evenodd" d="M20.2641 1.39775C19.5078 0.0751362 17.8234 -0.371461 16.5 0.384319C15.1766 1.1401 14.7297 2.82343 15.4859 4.14604L22.3609 16.0496C23.1172 17.3722 24.8016 17.8188 26.125 17.063C27.4485 16.3072 27.8953 14.6239 27.1391 13.3013L20.2641 1.39775Z" fill="#D6BD96"/>
<path fill-rule="evenodd" clip-rule="evenodd" d="M39.875 17.0458C41.1984 17.8016 42.8656 17.355 43.6391 16.0324L50.5141 4.12886C51.2703 2.80625 50.8234 1.14009 49.5 0.367137C48.1766 -0.388643 46.5094 0.0579546 45.7359 1.38057L38.8609 13.2841C38.1047 14.6067 38.5516 16.29 39.875 17.0458Z" fill="#D6BD96"/>
<path fill-rule="evenodd" clip-rule="evenodd" d="M26.125 40.8529C24.8016 40.0971 23.1344 40.5437 22.3609 41.8663L15.4859 53.7699C14.7297 55.0925 15.1766 56.7586 16.5 57.5316C17.8234 58.2874 19.4906 57.8408 20.2641 56.5182L27.1391 44.6146C27.8953 43.292 27.4485 41.6087 26.125 40.8529Z" fill="#D6BD96"/>
<path fill-rule="evenodd" clip-rule="evenodd" d="M60.5687 41.6774L48.6578 34.8067C47.3344 34.0509 45.6672 34.4975 44.8937 35.8201C44.1375 37.1427 44.5844 38.8089 45.9078 39.5818L57.8187 46.4525C59.1422 47.2083 60.8094 46.7617 61.5828 45.4391C62.3391 44.1165 61.8922 42.4503 60.5687 41.6774Z" fill="#D6BD96"/>
<path fill-rule="evenodd" clip-rule="evenodd" d="M5.43126 16.2213L17.3422 23.0921C18.6656 23.8478 20.3328 23.4012 21.1063 22.0786C21.8797 20.756 21.4156 19.0899 20.0922 18.3169L8.18126 11.4462C6.85783 10.6904 5.19064 11.137 4.4172 12.4596C3.66095 13.7822 4.10782 15.4484 5.43126 16.2213Z" fill="#D6BD96"/>
<path fill-rule="evenodd" clip-rule="evenodd" d="M36.7285 27.1696C37.7257 27.1696 38.5346 26.3323 38.5346 25.3003C38.5346 24.2682 37.7257 23.4309 36.7285 23.4309C35.7314 23.4309 34.9224 24.2682 34.9224 25.3003C34.9224 26.3323 35.7314 27.1696 36.7285 27.1696Z" fill="#D6BD96"/>
<path fill-rule="evenodd" clip-rule="evenodd" d="M39.8893 20.9384H25.1394C24.5524 20.9384 24.0858 21.433 24.0858 22.0405V34.7912C24.0858 35.3988 24.5524 35.8934 25.1394 35.8934H39.8893C40.4762 35.8934 40.9428 35.3988 40.9428 34.7912V22.0405C40.9428 21.433 40.4762 20.9384 39.8893 20.9384ZM36.0099 28.6379C35.897 28.5016 35.7239 28.3964 35.5283 28.3964C35.3364 28.3964 35.2009 28.4899 35.0466 28.6184L34.343 29.2337C34.1963 29.3428 34.0796 29.4168 33.9103 29.4168C33.7485 29.4168 33.6018 29.3545 33.4964 29.2571C33.4588 29.222 33.391 29.1558 33.3346 29.0974L31.3103 26.8308C31.1598 26.6517 30.934 26.5387 30.6819 26.5387C30.4298 26.5387 30.1965 26.6672 30.0497 26.8425L25.2899 32.7855V22.6403C25.3275 22.3755 25.527 22.1846 25.7828 22.1846H39.2421C39.5017 22.1846 39.7124 22.3833 39.7275 22.652L39.7387 32.7933L36.0099 28.6379Z" fill="#D6BD96"/>
</svg>
