<svg width="29" height="29" viewBox="0 0 29 29" fill="none" xmlns="http://www.w3.org/2000/svg">
<path fill-rule="evenodd" clip-rule="evenodd" d="M14.5 0C6.49272 0 0 6.49265 0 14.5C0 22.5073 6.49272 29 14.5 29C22.5078 29 29 22.5072 29 14.5C29 6.49279 22.5078 0 14.5 0ZM27.7915 14.5C27.7915 14.5033 27.7913 14.5068 27.7913 14.5101C26.2357 14.3901 24.7248 14.0241 23.2866 13.4157C22.0396 12.8883 20.8848 12.1954 19.8373 11.3499C21.2797 9.29331 22.5172 7.08269 23.5198 4.74715C26.145 7.1768 27.7915 10.6496 27.7915 14.5ZM22.6288 3.99175C22.6093 4.03888 22.5904 4.08614 22.5706 4.13313C21.601 6.42545 20.4052 8.5916 18.9953 10.6154C18.8881 10.5144 18.7818 10.4123 18.6773 10.3078C17.3453 8.97578 16.2996 7.42491 15.5693 5.69843C14.963 4.26495 14.598 2.75918 14.4769 1.20894C14.4846 1.20894 14.4923 1.20866 14.5 1.20866C17.5592 1.20859 20.38 2.24813 22.6288 3.99175ZM13.362 1.25787C13.6709 5.30993 15.5261 8.929 18.3387 11.5272C17.6768 12.416 16.9718 13.2753 16.2252 14.1041C12.9101 10.6163 8.91834 7.77806 4.46014 5.79923C6.66554 3.25783 9.81768 1.5598 13.362 1.25787ZM16.221 15.7437C18.7465 18.5788 20.7857 21.7694 22.2988 25.256C20.5281 26.5434 18.4291 27.4051 16.1529 27.6888C15.9945 24.3555 14.792 21.2958 12.8639 18.8305C14.0457 17.871 15.167 16.84 16.221 15.7437ZM14.921 15.4787C14.0354 16.3642 13.1101 17.1979 12.148 17.9792C9.44759 14.9897 5.6069 13.0502 1.31134 12.846C1.59507 10.5702 2.45684 8.47163 3.744 6.70123C7.87057 8.49198 11.5827 11.0197 14.7816 14.2184C15.0132 14.4501 15.241 14.6847 15.4656 14.9218C15.2861 15.109 15.1049 15.2948 14.921 15.4787ZM1.22051 13.9583C2.97989 14.0382 4.66677 14.4322 6.2014 15.0813C7.92794 15.8116 9.47875 16.8573 10.8107 18.1893C10.9679 18.3464 11.1206 18.5068 11.2697 18.6699C9.07979 20.3371 6.70869 21.7407 4.17949 22.8653C2.32293 20.5792 1.20852 17.6675 1.20852 14.5C1.20852 14.3185 1.21326 14.1381 1.22051 13.9583ZM4.95419 23.7386C7.46297 22.593 9.82075 21.1741 11.9891 19.5196C12.7732 20.5215 13.4197 21.6189 13.9187 22.7986C14.5889 24.3831 14.9653 26.0558 15.042 27.7795C14.8622 27.7867 14.6816 27.7915 14.5 27.7915C10.7577 27.7915 7.37206 26.2361 4.95419 23.7386ZM23.2007 24.5399C21.633 21.0076 19.5255 17.7681 16.9831 14.9261C17.7569 14.0708 18.4912 13.179 19.1829 12.2536C21.565 14.1597 24.5173 15.3826 27.7435 15.6251C27.4445 19.1747 25.7452 22.3319 23.2007 24.5399Z" fill="#D1C4E9"/>
</svg>
