<svg width="76" height="51" viewBox="0 0 76 51" fill="none" xmlns="http://www.w3.org/2000/svg">
<path fill-rule="evenodd" clip-rule="evenodd" d="M70.9068 13.7939C70.9068 13.7939 75.2194 13.0738 75.4008 8.97438C75.4008 8.97438 71.0235 9.25528 70.9068 13.7939Z" fill="#D6BD96"/>
<path fill-rule="evenodd" clip-rule="evenodd" d="M69.4088 21.9268C69.4088 21.9268 75.3636 21.3097 76 15.3C76 15.3 69.9995 15.2641 69.4088 21.9268Z" fill="#D6BD96"/>
<path fill-rule="evenodd" clip-rule="evenodd" d="M67.0119 29.3938C67.0119 29.3938 73.5366 30.3864 75.7004 24.5254C75.7004 24.5254 69.2871 22.8645 67.0119 29.3938Z" fill="#D6BD96"/>
<path fill-rule="evenodd" clip-rule="evenodd" d="M62.8175 37.0642C62.8175 37.0642 69.5578 40.1245 73.6032 34.4728C73.6032 34.4728 67.178 30.7262 62.8175 37.0642Z" fill="#D6BD96"/>
<path fill-rule="evenodd" clip-rule="evenodd" d="M58.6231 41.5047C58.6231 41.5047 64.1515 46.5296 69.4087 42.0714C69.4087 42.0714 64.355 36.453 58.6231 41.5047Z" fill="#D6BD96"/>
<path fill-rule="evenodd" clip-rule="evenodd" d="M49.9346 46.9277C49.9346 46.9277 55.4148 53.1501 61.9187 49.2676C61.9187 49.2676 57.0513 42.4924 49.9346 46.9277Z" fill="#D6BD96"/>
<path fill-rule="evenodd" clip-rule="evenodd" d="M70.9068 11.6853C70.9068 11.6853 70.9214 7.23805 67.0249 5.66095C67.0249 5.66095 66.5798 10.0178 70.9068 11.6853Z" fill="#D6BD96"/>
<path fill-rule="evenodd" clip-rule="evenodd" d="M70.3076 17.4085C70.3076 17.4085 70.3241 12.0718 65.8285 10.1793C65.8285 10.1793 65.315 15.408 70.3076 17.4085Z" fill="#D6BD96"/>
<path fill-rule="evenodd" clip-rule="evenodd" d="M68.8095 24.6378C68.8095 24.6378 68.8328 17.7434 62.8375 15.3C62.8375 15.3 62.1519 22.0525 68.8095 24.6378Z" fill="#D6BD96"/>
<path fill-rule="evenodd" clip-rule="evenodd" d="M65.4595 33.0719C65.4595 33.0719 67.4044 26.4112 62.1767 22.228C62.1767 22.228 59.619 28.5517 65.4595 33.0719Z" fill="#D6BD96"/>
<path fill-rule="evenodd" clip-rule="evenodd" d="M61.2854 38.7951C61.2854 38.7951 64.1749 32.4472 59.7833 27.3488C59.7833 27.3488 56.3547 33.2527 61.2854 38.7951Z" fill="#D6BD96"/>
<path fill-rule="evenodd" clip-rule="evenodd" d="M55.0086 44.2171C55.0086 44.2171 59.574 37.3284 55.2944 30.361C55.2944 30.361 50.1719 36.6091 55.0086 44.2171Z" fill="#D6BD96"/>
<path fill-rule="evenodd" clip-rule="evenodd" d="M46.9143 47.8317C46.9143 47.8317 53.2138 42.388 50.4172 34.578C50.4172 34.578 43.6906 39.261 46.9143 47.8317Z" fill="#D6BD96"/>
<mask id="mask0_1_691" style="mask-type:luminance" maskUnits="userSpaceOnUse" x="69" y="0" width="3" height="8">
<path fill-rule="evenodd" clip-rule="evenodd" d="M69.4264 0H71.9006V7.23413H69.4264V0Z" fill="white"/>
</mask>
<g mask="url(#mask0_1_691)">
<path fill-rule="evenodd" clip-rule="evenodd" d="M71.2352 7.23413C71.2352 7.23413 73.2591 3.24133 70.2477 -0.000306694C70.2477 -0.000306694 67.8561 3.7112 71.2352 7.23413Z" fill="#D1CABF"/>
</g>
<path fill-rule="evenodd" clip-rule="evenodd" d="M5.09323 13.7939C5.09323 13.7939 0.780645 13.0738 0.599201 8.97438C0.599201 8.97438 4.97649 9.25528 5.09323 13.7939Z" fill="#D6BD96"/>
<path fill-rule="evenodd" clip-rule="evenodd" d="M6.59125 21.9268C6.59125 21.9268 0.636419 21.3097 9.58418e-07 15.3C9.58418e-07 15.3 6.00051 15.2641 6.59125 21.9268Z" fill="#D6BD96"/>
<path fill-rule="evenodd" clip-rule="evenodd" d="M8.98806 29.3938C8.98806 29.3938 2.46336 30.3864 0.299598 24.5254C0.299598 24.5254 6.71288 22.8645 8.98806 29.3938Z" fill="#D6BD96"/>
<path fill-rule="evenodd" clip-rule="evenodd" d="M13.1825 37.0642C13.1825 37.0642 6.44217 40.1245 2.39682 34.4728C2.39682 34.4728 8.82199 30.7262 13.1825 37.0642Z" fill="#D6BD96"/>
<path fill-rule="evenodd" clip-rule="evenodd" d="M17.3769 41.5047C17.3769 41.5047 11.8485 46.5296 6.59125 42.0714C6.59125 42.0714 11.645 36.453 17.3769 41.5047Z" fill="#D6BD96"/>
<path fill-rule="evenodd" clip-rule="evenodd" d="M26.0654 46.9277C26.0654 46.9277 20.5852 53.1501 14.0813 49.2676C14.0813 49.2676 18.9487 42.4924 26.0654 46.9277Z" fill="#D6BD96"/>
<path fill-rule="evenodd" clip-rule="evenodd" d="M5.09323 11.6853C5.09323 11.6853 5.07857 7.23805 8.9751 5.66095C8.9751 5.66095 9.42019 10.0178 5.09323 11.6853Z" fill="#D6BD96"/>
<path fill-rule="evenodd" clip-rule="evenodd" d="M5.69243 17.4085C5.69243 17.4085 5.67586 12.0718 10.1715 10.1793C10.1715 10.1793 10.685 15.408 5.69243 17.4085Z" fill="#D6BD96"/>
<path fill-rule="evenodd" clip-rule="evenodd" d="M7.19045 24.6378C7.19045 24.6378 7.16722 17.7434 13.1625 15.3C13.1625 15.3 13.8481 22.0525 7.19045 24.6378Z" fill="#D6BD96"/>
<path fill-rule="evenodd" clip-rule="evenodd" d="M10.5405 33.0719C10.5405 33.0719 8.59556 26.4112 13.8233 22.228C13.8233 22.228 16.381 28.5517 10.5405 33.0719Z" fill="#D6BD96"/>
<path fill-rule="evenodd" clip-rule="evenodd" d="M14.7146 38.7951C14.7146 38.7951 11.8251 32.4472 16.2167 27.3488C16.2167 27.3488 19.6453 33.2527 14.7146 38.7951Z" fill="#D6BD96"/>
<path fill-rule="evenodd" clip-rule="evenodd" d="M20.9914 44.2171C20.9914 44.2171 16.426 37.3284 20.7056 30.361C20.7056 30.361 25.8281 36.6091 20.9914 44.2171Z" fill="#D6BD96"/>
<path fill-rule="evenodd" clip-rule="evenodd" d="M29.0857 47.8317C29.0857 47.8317 22.7862 42.388 25.5828 34.578C25.5828 34.578 32.3094 39.261 29.0857 47.8317Z" fill="#D6BD96"/>
<mask id="mask1_1_691" style="mask-type:luminance" maskUnits="userSpaceOnUse" x="4" y="0" width="3" height="8">
<path fill-rule="evenodd" clip-rule="evenodd" d="M6.57358 0H4.09937V7.23413H6.57358V0Z" fill="white"/>
</mask>
<g mask="url(#mask1_1_691)">
<path fill-rule="evenodd" clip-rule="evenodd" d="M4.76481 7.23413C4.76481 7.23413 2.74094 3.24133 5.75229 -0.000306694C5.75229 -0.000306694 8.14387 3.7112 4.76481 7.23413Z" fill="#D1CABF"/>
</g>
<path fill-rule="evenodd" clip-rule="evenodd" d="M36.1758 9.65628V17.2841C36.1758 17.8573 36.1995 18.223 36.2469 18.3812C36.2942 18.5394 36.3933 18.6689 36.5441 18.7698C36.6948 18.8707 36.936 18.9211 37.2677 18.9211H37.468V19.1756H32.855V18.9211H33.0875C33.4623 18.9211 33.7293 18.8753 33.8887 18.7836C34.0481 18.6919 34.1557 18.5658 34.2117 18.4053C34.2677 18.2448 34.2957 17.8711 34.2957 17.2841V12.4488C34.2957 12.0178 34.2763 11.7484 34.2376 11.6406C34.1988 11.5329 34.1267 11.4412 34.0211 11.3655C33.9156 11.2898 33.7939 11.252 33.6561 11.252C33.4364 11.252 33.1694 11.3254 32.855 11.4721L32.7387 11.2245L35.9626 9.65628H36.1758ZM44.5619 9.65628V9.84505C43.7568 10.0518 43.1107 10.3181 42.6236 10.6439C42.1365 10.9698 41.7518 11.3653 41.4693 11.8305C41.1868 12.2957 40.9678 12.8721 40.8121 13.5598C41.0078 13.4249 41.1702 13.3373 41.2992 13.2968C41.5883 13.2069 41.8796 13.162 42.1732 13.162C42.8493 13.162 43.4131 13.4103 43.8646 13.907C44.3161 14.4036 44.5419 15.0811 44.5419 15.9396C44.5419 16.5419 44.4195 17.0947 44.1749 17.5981C43.9302 18.1014 43.5833 18.4902 43.134 18.7644C42.6848 19.0385 42.2044 19.1756 41.6928 19.1756C41.1368 19.1756 40.623 19.0217 40.1515 18.7138C39.68 18.4059 39.3119 17.9554 39.0473 17.3621C38.7826 16.7688 38.6503 16.1239 38.6503 15.4272C38.6503 14.4025 38.8938 13.4485 39.3809 12.5653C39.868 11.6822 40.5596 10.9788 41.456 10.4552C42.3523 9.93157 43.3876 9.66527 44.5619 9.65628ZM40.4238 15.559C40.4238 15.2678 40.4425 14.8083 40.4799 14.1805C40.7791 14.0304 41.0223 13.9553 41.2093 13.9553C41.5506 13.9553 41.8218 14.11 42.0229 14.4194C42.3362 14.897 42.4928 15.7637 42.4928 17.0193C42.4928 17.7654 42.4087 18.2601 42.2403 18.5035C42.072 18.7469 41.8803 18.8685 41.6652 18.8685C41.4548 18.8685 41.2724 18.7844 41.1181 18.6161C40.903 18.3795 40.7335 17.9678 40.6096 17.3809C40.4857 16.7941 40.4238 16.1868 40.4238 15.559ZM34.5816 24.0888C35.5218 24.0888 36.3364 24.4507 37.0255 25.1743C37.7146 25.898 38.0591 26.8012 38.0591 27.884C38.0591 28.9992 37.7119 29.925 37.0175 30.6613C36.323 31.3976 35.4826 31.7657 34.4961 31.7657C33.499 31.7657 32.6612 31.4066 31.9828 30.6884C31.3044 29.9701 30.9652 29.0407 30.9652 27.9002C30.9652 26.7344 31.3569 25.7834 32.1404 25.0471C32.8206 24.4082 33.6343 24.0888 34.5816 24.0888ZM32.8457 25.4188C33.2194 24.9416 33.7154 24.703 34.3338 24.703C34.9929 24.703 35.5093 24.9434 35.883 25.4241C36.3485 26.0287 36.5812 26.946 36.5812 28.1763C36.5812 29.311 36.3697 30.1418 35.9467 30.6685C35.5237 31.1953 34.9878 31.4586 34.3389 31.4586C33.7307 31.4586 33.2415 31.2183 32.8712 30.7375C32.3887 30.1047 32.1475 29.2015 32.1475 28.0278C32.1475 26.8824 32.3802 26.0128 32.8457 25.4188ZM42.7884 29.7443C42.6562 30.393 42.3971 30.8921 42.0112 31.2415C41.6252 31.591 41.1982 31.7657 40.7301 31.7657C40.1726 31.7657 39.6866 31.531 39.2721 31.0614C38.8575 30.5919 38.6503 29.9575 38.6503 29.1583C38.6503 28.3841 38.8799 27.7551 39.3391 27.2712C39.7983 26.7874 40.3495 26.5454 40.9927 26.5454C41.4751 26.5454 41.8718 26.6736 42.1827 26.9298C42.4936 27.1861 42.649 27.4522 42.649 27.7282C42.649 27.8644 42.6053 27.9746 42.5177 28.0588C42.4302 28.1431 42.3078 28.1852 42.1505 28.1852C41.9397 28.1852 41.7807 28.1171 41.6735 27.9809C41.6127 27.9056 41.5725 27.7622 41.5529 27.5508C41.5332 27.3393 41.4608 27.178 41.3358 27.0669C41.2107 26.9594 41.0374 26.9056 40.8158 26.9056C40.4585 26.9056 40.1708 27.0382 39.9528 27.3035C39.6634 27.6547 39.5186 28.1189 39.5186 28.6959C39.5186 29.2837 39.6625 29.8025 39.9501 30.2523C40.2378 30.7021 40.6264 30.927 41.116 30.927C41.4662 30.927 41.7807 30.807 42.0594 30.5668C42.256 30.402 42.4471 30.1027 42.633 29.669L42.7884 29.7443ZM44.744 26.6606V25.0101H44.578C44.4316 25.3793 44.3174 25.6333 44.2353 25.7723C44.0746 26.0355 43.8917 26.263 43.6864 26.455C43.4811 26.6469 43.2803 26.783 43.084 26.8635V27.0444H43.8604V30.4223C43.8604 30.7842 43.8979 31.0519 43.9729 31.2256C44.0478 31.3992 44.1639 31.5327 44.3209 31.6259C44.478 31.7191 44.6386 31.7657 44.8029 31.7657C45.0456 31.7657 45.2812 31.6752 45.5097 31.4943C45.7381 31.3133 45.9148 31.0437 46.0398 30.6855H45.831C45.7703 30.8317 45.6846 30.9423 45.5739 31.0172C45.4633 31.0922 45.349 31.1296 45.2312 31.1296C45.0884 31.1296 44.9715 31.073 44.8805 30.9596C44.7895 30.8463 44.744 30.627 44.744 30.3016V27.0444H45.8899V26.6606H44.744Z" fill="#D6BD96"/>
</svg>
