<svg width="23" height="24" viewBox="0 0 23 24" fill="none" xmlns="http://www.w3.org/2000/svg">
<path fill-rule="evenodd" clip-rule="evenodd" d="M22.9993 7.73206L20.9821 4.26794L13.5219 8.53588V0H9.47814V8.53588L2.01794 4.26794L0 7.73206L7.4621 12L0.000568647 16.2679L2.01788 19.7321L9.47814 15.4641V24H13.5219V15.4641L20.982 19.7321L23 16.2679L15.5379 12L22.9993 7.73206ZM21.6204 16.6328L20.6118 18.3744L12.5109 13.75V23H10.4891V13.75L2.38819 18.375L1.37922 16.6384L9.48105 12.0011L1.37947 7.36631L2.38813 5.62512L10.4891 10.25V1H12.5109V10.25L20.6118 5.625L21.6208 7.36156L13.5189 11.9978L21.6204 16.6328Z" fill="white"/>
</svg>
