<svg width="66" height="50" viewBox="0 0 66 50" fill="none" xmlns="http://www.w3.org/2000/svg">
<path fill-rule="evenodd" clip-rule="evenodd" d="M34.1602 4.16243C42.5775 4.16243 49.461 4.30552 55.8288 4.59169H55.919H56.0092C58.9869 4.59169 61.4232 7.45336 61.4232 10.9784V11.1215L61.436 11.2646C61.7325 15.6872 61.8743 20.2789 61.8743 24.9096C61.8872 29.5403 61.7325 34.132 61.436 38.5546L61.4232 38.6976V38.8407C61.4232 40.6358 60.8173 42.3007 59.6959 43.5365C58.6904 44.6551 57.3756 45.2795 56.0092 45.2795H55.9061H55.803C48.984 45.6047 41.7783 45.7738 34.3535 45.7738C33.9024 45.7738 33.4383 45.7738 32.9872 45.7738H33H32.9872C32.5231 45.7738 32.059 45.7738 31.595 45.7738C24.1444 45.7738 16.9387 45.6047 10.1713 45.2925H10.0682H9.96508C8.5987 45.2925 7.29678 44.6681 6.29134 43.5495C5.18277 42.3137 4.56404 40.6488 4.56404 38.8537V38.7106L4.55115 38.5676C4.24178 34.132 4.09999 29.5403 4.12577 24.9486V24.9356V24.9226C4.11288 20.3309 4.25467 15.7522 4.55115 11.3166L4.56404 11.1735V11.0305C4.56404 7.49238 6.98742 4.6177 9.96508 4.6177H10.0553H10.1455C16.5262 4.31853 23.4097 4.18845 31.827 4.18845H32.9872H34.1602V4.16243ZM34.1602 0C33.7735 0 33.3868 0 33 0C32.6133 0 32.2266 0 31.8399 0C24.4151 0 17.1192 0.104061 9.97797 0.429251C4.71872 0.429251 0.452035 5.15101 0.452035 11.0044C0.129777 15.6612 -0.0120162 20.2919 0.000874101 24.9356C-0.0120162 29.5793 0.116887 34.21 0.439144 38.8537C0.439144 44.7072 4.70583 49.4679 9.96508 49.4679C17.029 49.8061 24.2346 49.9622 31.595 49.9622C32.059 49.9622 32.536 49.9622 33 49.9622C33.4641 49.9622 33.9281 49.9622 34.3793 49.9622C41.7397 49.9622 48.9453 49.8061 56.0221 49.4679C61.2942 49.4679 65.5609 44.7072 65.5609 38.8537C65.8703 34.21 66.0121 29.5663 65.9992 24.9226C66.0121 20.2789 65.8703 15.6482 65.5609 10.9914C65.5609 5.138 61.2942 0.442259 56.0221 0.442259C48.8809 0.104061 41.5979 0 34.1602 0Z" fill="#D6BD96"/>
<path fill-rule="evenodd" clip-rule="evenodd" d="M26.6838 37.696V12.1491L45.3747 24.9226L26.6838 37.696Z" fill="#D6BD96"/>
</svg>
