<svg width="29" height="29" viewBox="0 0 29 29" fill="none" xmlns="http://www.w3.org/2000/svg">
<path fill-rule="evenodd" clip-rule="evenodd" d="M14.5 0C14.493 0 14.493 0 14.4861 0C14.4861 0 14.4861 0 14.4791 0C14.4721 0 14.4651 0 14.4651 0C6.46923 0.0209135 0 6.50409 0 14.5C0 22.4959 6.46923 28.9791 14.4651 29C14.4721 29 14.4791 29 14.4791 29H14.4861C14.493 29 14.493 29 14.5 29C22.5099 29 29 22.5099 29 14.5C29 6.49014 22.5099 0 14.5 0ZM15.0786 8.67909C16.6192 8.63726 18.1111 8.4351 19.5541 8.08654C19.9863 9.79447 20.2582 11.7673 20.3 13.9284H15.0786V8.67909ZM15.0786 7.5149V1.25481C16.6401 1.68702 18.2296 3.77139 19.2334 6.97115C17.895 7.29183 16.5077 7.47308 15.0786 7.5149ZM13.9214 1.24087V7.52187C12.4784 7.48005 11.0772 7.29183 9.73173 6.96418C10.7495 3.74351 12.3459 1.64519 13.9214 1.24087ZM13.9214 8.67909V13.9214H8.66514C8.70697 11.7603 8.97885 9.7875 9.41106 8.07957C10.8611 8.42812 12.3738 8.63726 13.9214 8.67909ZM7.49399 13.9214H1.17813C1.30361 10.9377 2.41899 8.20505 4.19663 6.04399C5.4863 6.75505 6.85962 7.34063 8.29567 7.77284C7.82163 9.62019 7.54279 11.7046 7.49399 13.9214ZM7.49399 15.0786C7.53582 17.2885 7.81466 19.3798 8.2887 21.2272C6.85264 21.6663 5.4863 22.245 4.18966 22.956C2.41202 20.795 1.30361 18.0623 1.17115 15.0786H7.49399ZM8.66514 15.0786H13.9214V20.3139C12.3738 20.3558 10.8611 20.5649 9.41106 20.9204C8.97885 19.2125 8.70697 17.2397 8.66514 15.0786ZM13.9214 21.4781V27.7661C12.3459 27.3548 10.7495 25.2635 9.73173 22.0428C11.0772 21.7082 12.4784 21.52 13.9214 21.4781ZM15.0786 27.7452V21.4712C16.5077 21.513 17.895 21.7012 19.2404 22.0219C18.2296 25.2286 16.6471 27.313 15.0786 27.7452ZM15.0786 20.3139V15.0786H20.3C20.2582 17.2327 19.9863 19.2055 19.5541 20.9135C18.1111 20.5649 16.6192 20.3558 15.0786 20.3139ZM21.4642 15.0786H27.8219C27.6964 18.0623 26.581 20.788 24.8034 22.956C23.4998 22.238 22.1195 21.6524 20.6695 21.2132C21.1435 19.3659 21.4224 17.2885 21.4642 15.0786ZM21.4642 13.9214C21.4224 11.7115 21.1435 9.62716 20.6764 7.77981C22.1264 7.34063 23.5067 6.75505 24.8034 6.04399C26.581 8.20505 27.6964 10.9377 27.8219 13.9284H21.4642V13.9214ZM24.0087 5.15168C22.8514 5.76514 21.6385 6.27404 20.3627 6.65745C19.6865 4.47548 18.7315 2.69784 17.6091 1.52668C20.0769 2.11923 22.2798 3.40192 24.0087 5.15168ZM11.349 1.54062C10.2267 2.70481 9.27861 4.48245 8.60938 6.65048C7.3476 6.26707 6.14159 5.76514 4.99832 5.15168C6.70625 3.40889 8.89519 2.13317 11.349 1.54062ZM4.99135 23.8413C6.13462 23.2279 7.3476 22.726 8.6024 22.3425C9.27861 24.5175 10.2267 26.2882 11.349 27.4594C8.89519 26.8668 6.70625 25.5911 4.99135 23.8413ZM17.6091 27.4733C18.7385 26.3022 19.6865 24.5245 20.3697 22.3356C21.6454 22.719 22.8584 23.2279 24.0156 23.8413C22.2868 25.5981 20.0769 26.8808 17.6091 27.4733Z" fill="white"/>
</svg>
