<svg width="23" height="11" viewBox="0 0 23 11" fill="none" xmlns="http://www.w3.org/2000/svg">
<path fill-rule="evenodd" clip-rule="evenodd" d="M6.50943 1.54102V0H0V10.4127H1.93427V6.17126H5.79568V4.62305H1.93427V1.54102H6.50943ZM7.89367 8.9064C7.83877 9.04093 7.81132 9.18267 7.81132 9.33161C7.81132 9.48536 7.83877 9.6283 7.89367 9.76043C7.94857 9.89255 8.02496 10.0067 8.12283 10.1028C8.2207 10.1989 8.33646 10.2745 8.47014 10.3298C8.60381 10.385 8.74703 10.4127 8.89981 10.4127C9.0478 10.4127 9.18863 10.385 9.32231 10.3298C9.45598 10.2745 9.57056 10.1989 9.66604 10.1028C9.76152 10.0067 9.83791 9.89255 9.8952 9.76043C9.95249 9.6283 9.98113 9.48536 9.98113 9.33161C9.98113 9.18267 9.95249 9.04093 9.8952 8.9064C9.83791 8.77187 9.76152 8.65656 9.66604 8.56046C9.57056 8.46437 9.45598 8.38749 9.32231 8.32984C9.18863 8.27218 9.0478 8.24335 8.89981 8.24335C8.74703 8.24335 8.60381 8.27218 8.47014 8.32984C8.33646 8.38749 8.2207 8.46437 8.12283 8.56046C8.02496 8.65656 7.94857 8.77187 7.89367 8.9064ZM14.9683 8.75319C15.3259 8.75319 15.6456 8.69146 15.9276 8.56801C16.2095 8.44456 16.4479 8.27125 16.6428 8.04809C16.8376 7.82492 16.9866 7.55428 17.0897 7.23616C17.1929 6.91803 17.2445 6.56192 17.2445 6.16783V0H19.0943V6.16783C19.0943 6.78034 18.9992 7.34655 18.8089 7.86647C18.6187 8.38639 18.3448 8.83509 17.9872 9.21257C17.6296 9.59005 17.1963 9.88443 16.6875 10.0957C16.1786 10.307 15.6055 10.4127 14.9683 10.4127C14.331 10.4127 13.7579 10.307 13.2491 10.0957C12.7402 9.88443 12.3081 9.59005 11.9528 9.21257C11.5975 8.83509 11.3247 8.38639 11.1344 7.86647C10.9442 7.34655 10.8491 6.78034 10.8491 6.16783V0H12.6989V6.1607C12.6989 6.5548 12.7505 6.91091 12.8536 7.22903C12.9568 7.54716 13.1046 7.81899 13.2972 8.04453C13.4897 8.27006 13.727 8.44456 14.0089 8.56801C14.2909 8.69146 14.6107 8.75319 14.9683 8.75319ZM20.9125 8.9064C20.8576 9.04093 20.8302 9.18267 20.8302 9.33161C20.8302 9.48536 20.8576 9.6283 20.9125 9.76043C20.9674 9.89255 21.0438 10.0067 21.1417 10.1028C21.2396 10.1989 21.3553 10.2745 21.489 10.3298C21.6227 10.385 21.7659 10.4127 21.9187 10.4127C22.0667 10.4127 22.2075 10.385 22.3412 10.3298C22.4748 10.2745 22.5894 10.1989 22.6849 10.1028C22.7804 10.0067 22.8568 9.89255 22.9141 9.76043C22.9714 9.6283 23 9.48536 23 9.33161C23 9.18267 22.9714 9.04093 22.9141 8.9064C22.8568 8.77187 22.7804 8.65656 22.6849 8.56046C22.5894 8.46437 22.4748 8.38749 22.3412 8.32984C22.2075 8.27218 22.0667 8.24335 21.9187 8.24335C21.7659 8.24335 21.6227 8.27218 21.489 8.32984C21.3553 8.38749 21.2396 8.46437 21.1417 8.56046C21.0438 8.65656 20.9674 8.77187 20.9125 8.9064Z" fill="#D6BD96"/>
</svg>
