<svg width="25" height="25" viewBox="0 0 25 25" fill="none" xmlns="http://www.w3.org/2000/svg">
<path fill-rule="evenodd" clip-rule="evenodd" d="M22.0567 12.5C22.0567 12.0624 21.993 11.6876 21.993 11.25L24.6773 9.1876C24.9333 9.00022 24.997 8.68778 24.8053 8.37522L22.2483 4.06246C22.1204 3.81222 21.7371 3.68776 21.4811 3.81222L18.2849 5.06228C17.6456 4.5624 16.879 4.12472 16.1118 3.81222L15.6642 0.499882C15.6005 0.250242 15.3446 0 15.0249 0H9.91094C9.59135 0 9.33541 0.250242 9.27171 0.499882L8.76042 3.81222C7.99318 4.12472 7.29024 4.56234 6.58671 5.06228L3.39048 3.81222C3.07083 3.68776 2.75118 3.81222 2.62324 4.06246L0.066246 8.37528C-0.0610959 8.62486 0.00248491 9.00022 0.194189 9.18766L2.94301 11.25C2.94301 11.6876 2.87931 12.0624 2.87931 12.5C2.87931 12.9376 2.94301 13.3124 2.94301 13.75L0.258671 15.8124C0.00266519 15.9998 -0.0609156 16.3122 0.130668 16.6248L2.68766 20.9375C2.81567 21.1878 3.19895 21.3122 3.4549 21.1878L6.65119 19.9377C7.29042 20.4376 8.05706 20.8753 8.82424 21.1878L9.33553 24.5001C9.39977 24.8126 9.65511 25 9.97476 25H15.0888C15.4084 25 15.6643 24.7498 15.728 24.5001L16.2399 21.1878C17.0066 20.8753 17.7101 20.4377 18.413 19.9377L21.6093 21.1878C21.9289 21.3122 22.2485 21.1878 22.3765 20.9375L24.9335 16.6247C25.0614 16.3751 24.9972 15.9998 24.8055 15.8123L21.993 13.75C22.0567 13.3753 22.0567 12.9376 22.0567 12.5ZM12.468 16.875C9.9747 16.875 7.9933 14.9378 7.9933 12.5C7.9933 10.0622 9.9747 8.12498 12.468 8.12498C14.9613 8.12498 16.9428 10.0622 16.9428 12.5C16.9428 14.9378 14.9613 16.875 12.468 16.875Z" fill="white"/>
</svg>
