<svg width="191" height="25" viewBox="0 0 191 25" fill="none" xmlns="http://www.w3.org/2000/svg">
<g opacity="0.75">
<path fill-rule="evenodd" clip-rule="evenodd" d="M8.66667 8.33333V5.85286C8.66667 4.73307 8.92396 4.16667 10.7318 4.16667H13V0H9.2151C4.57708 0 3.04688 2.04427 3.04688 5.55339V8.33333H0V12.5H3.04688V25H8.66667V12.5H12.4854L13 8.33333H8.66667Z" fill="#193CCC"/>
<path fill-rule="evenodd" clip-rule="evenodd" d="M76.5007 0H55.636C54.4964 0 53.5 0.820526 53.5 1.94712V22.8575C53.5 23.9906 54.4964 25 55.636 25H76.4942C77.6404 25 78.5 23.9841 78.5 22.8575V1.94712C78.5065 0.820526 77.6404 0 76.5007 0ZM61.2494 20.8388H57.6677V9.70305H61.2494V20.8388ZM59.5823 8.0099H59.5563C58.4101 8.0099 57.6677 7.15681 57.6677 6.08883C57.6677 5.0013 58.4297 4.16775 59.6018 4.16775C60.774 4.16775 61.4904 4.99479 61.5164 6.08883C61.5164 7.15681 60.774 8.0099 59.5823 8.0099ZM74.3387 20.8388H70.7571V14.7499C70.7571 13.2912 70.2361 12.2949 68.9402 12.2949C67.9504 12.2949 67.3643 12.9656 67.1038 13.6168C67.0061 13.8513 66.9801 14.1704 66.9801 14.496V20.8388H63.3984V9.70305H66.9801V11.2529C67.501 10.5105 68.315 9.44256 70.2101 9.44256C72.5609 9.44256 74.3387 10.9924 74.3387 14.3332V20.8388Z" fill="#0050FF"/>
<path fill-rule="evenodd" clip-rule="evenodd" d="M139.25 2.96224C138.098 3.46354 136.866 3.80208 135.568 3.95833C136.893 3.17708 137.912 1.9401 138.389 0.46875C137.151 1.19141 135.78 1.71875 134.316 1.9987C133.144 0.768229 131.476 0 129.635 0C126.092 0 123.224 2.82552 123.224 6.30859C123.224 6.80339 123.277 7.28516 123.39 7.7474C118.059 7.48698 113.331 4.97396 110.172 1.15234C109.622 2.08333 109.305 3.17057 109.305 4.32292C109.305 6.51042 110.444 8.44401 112.165 9.57682C111.106 9.55078 110.112 9.26432 109.252 8.78906C109.252 8.8151 109.252 8.84115 109.252 8.86719C109.252 11.9271 111.463 14.4727 114.397 15.0521C113.861 15.1953 113.291 15.2734 112.708 15.2734C112.298 15.2734 111.894 15.2344 111.503 15.1562C112.318 17.6628 114.688 19.4857 117.496 19.5378C115.304 21.2305 112.536 22.2396 109.53 22.2396C109.013 22.2396 108.503 22.207 108 22.1484C110.828 23.9583 114.198 25 117.814 25C129.621 25 136.071 15.3841 136.071 7.04427C136.071 6.77083 136.065 6.4974 136.051 6.23047C137.303 5.33854 138.389 4.23177 139.25 2.96224Z" fill="#20B1D1"/>
<circle cx="177.5" cy="12.8787" r="5.30303" fill="#A418E6"/>
<path fill-rule="evenodd" clip-rule="evenodd" d="M172.769 7.33008C174.142 5.95645 175.969 5.19184 177.911 5.19184C179.854 5.19184 181.68 5.96047 183.054 7.33411C183.925 8.20567 184.548 9.25301 184.887 10.4218H190.346V3.08417C190.346 1.36275 189.016 0.0322266 187.294 0.0322266H168.593C166.872 0.0322266 165.411 1.36275 165.411 3.08417V10.4218H170.935C171.275 9.25301 171.897 8.20164 172.769 7.33008ZM188.268 5.43482C188.268 5.89385 187.896 6.26599 187.437 6.26599H184.944C184.485 6.26599 184.113 5.89391 184.113 5.43482V2.94132C184.113 2.48229 184.485 2.11015 184.944 2.11015H187.437C187.896 2.11015 188.268 2.48223 188.268 2.94132V5.43482Z" fill="#A418E6"/>
<path fill-rule="evenodd" clip-rule="evenodd" d="M183.054 17.6155C181.68 18.9892 179.854 19.7375 177.911 19.7375C175.969 19.7375 174.142 18.9932 172.769 17.6196C171.398 16.2485 170.642 14.3831 170.639 12.5H165.411V21.7857C165.411 23.5071 166.872 24.9675 168.593 24.9675H187.294C189.016 24.9675 190.346 23.5071 190.346 21.7857V12.5H185.184C185.181 14.3831 184.425 16.2444 183.054 17.6155Z" fill="#A418E6"/>
</g>
</svg>
